<!-- Generator: Adobe Illustrator 21.1.0, SVG Export Plug-In  -->
<svg version="1.1"
	 xmlns="http://www.w3.org/2000/svg" xmlns:xlink="http://www.w3.org/1999/xlink" xmlns:a="http://ns.adobe.com/AdobeSVGViewerExtensions/3.0/"
	 x="0px" y="0px" width="260.4px" height="203px" viewBox="0 0 260.4 203" style="enable-background:new 0 0 260.4 203;"
	 xml:space="preserve">
<style type="text/css">
	.st0{fill:#3F3F5B;stroke:#FFFFFF;stroke-width:3;stroke-miterlimit:10;}
	.st1{fill:#FFFFFF;}
</style>
<defs>
</defs>
<path class="st0" d="M242.3,201.5H18.2c-9.2,0-16.7-7.5-16.7-16.7V18.2C1.5,9,9,1.5,18.2,1.5h224.1c9.2,0,16.7,7.5,16.7,16.7v166.7
	C258.9,194.1,251.5,201.5,242.3,201.5z"/>
<g>
	<circle class="st1" cx="103" cy="80.5" r="7"/>
	<circle class="st1" cx="103" cy="101.5" r="7"/>
	<circle class="st1" cx="103" cy="122.6" r="7"/>
	<circle class="st1" cx="130.4" cy="80.5" r="7"/>
	<circle class="st1" cx="130.4" cy="101.5" r="7"/>
	<circle class="st1" cx="130.4" cy="122.6" r="7"/>
	<circle class="st1" cx="157.5" cy="80.5" r="7"/>
	<circle class="st1" cx="157.5" cy="101.5" r="7"/>
	<circle class="st1" cx="157.5" cy="122.6" r="7"/>
</g>
</svg>
