<!-- Generator: Adobe Illustrator 21.1.0, SVG Export Plug-In  -->
<svg version="1.1"
	 xmlns="http://www.w3.org/2000/svg" xmlns:xlink="http://www.w3.org/1999/xlink" xmlns:a="http://ns.adobe.com/AdobeSVGViewerExtensions/3.0/"
	 x="0px" y="0px" width="846px" height="170.3px" viewBox="0 0 846 170.3" style="enable-background:new 0 0 846 170.3;"
	 xml:space="preserve">
<style type="text/css">
	.st0{clip-path:url(#SVGID_2_);}
	.st1{fill:none;}
	.st2{fill-rule:evenodd;clip-rule:evenodd;fill:#B2D235;}
	.st3{clip-path:url(#SVGID_4_);}
</style>
<defs>
</defs>
<g>
	<defs>
		<rect id="SVGID_1_" x="509.7" width="226.7" height="170.3"/>
	</defs>
	<clipPath id="SVGID_2_">
		<use xlink:href="#SVGID_1_"  style="overflow:visible;"/>
	</clipPath>
	<g class="st0">
		<g>
			<g>
				
					<rect x="386" y="-337.7" transform="matrix(2.474681e-02 -0.9997 0.9997 2.474681e-02 328.0437 505.2471)" class="st1" width="73.9" height="844.4"/>
				<path class="st2" d="M801.1,95.1c-0.9,0-1.1-0.4-1.8-0.5c0.1-1,1-2-1.1-1.5c0.2-0.3,0.6-0.6,0.8-0.9c1.3,0.1,1.7,0.8,1.8,1.7
					c2.1,0,1.8-1.7,4.4-1.3C804,93.5,801.9,93.8,801.1,95.1z"/>
				<path class="st2" d="M837.9,85.2c1.5-0.7,2.6-1.8,4.4-2.3c-0.2-1.5,1.6-1.6,2.6-2.3c1.2,1.4-0.6,2.5-1.9,3.3
					c-0.6,0.4-1,0.9-1.1,0.9c-0.3,0.1-0.8-0.1-1.1,0C840.6,84.8,838.9,85.9,837.9,85.2z"/>
				<path class="st2" d="M776.5,81c-0.9-0.4-0.6-0.8-0.3-1.4c-0.8-0.6-0.7,0.3-1.8,0.2c0.4-0.9,0.9-1.7,2.6-1.6
					C776.8,79.1,777.3,80.4,776.5,81z"/>
				<path class="st2" d="M410.1,63c-0.1,1.1-0.7,2.3-0.8,3.3c-0.1,1,0.1,1.9-0.1,2.9c-0.1,0.9-0.6,1.8-0.8,2.6c-0.1,0.6,0,1.3,0,1.9
					c-0.5,3.7-2,7.5-1.4,11.3c-1.5,1.3-1.2,3.4-1.6,5.2c-0.1,0.4-0.7,0.9-0.8,1.4c-0.3,1.3-0.3,1.9-0.8,2.6c-0.5,0.8,1.2,0.2,0.7,1
					c-1.6,1-2.2,3.6-2.7,5.2c-0.2,0.5-1.7,1.2,0,1.4c0.2-0.5-0.5-1.5,0.8-1.2c0.1,1.6-0.7,2.6-2.6,2.8c-0.8-1.9-0.2-5.8,0.2-7.9
					c0.5-2.3,0-4.9,0.5-7.2c0.1-0.6,0.7-1.1,0.8-1.7c0.2-0.9-0.1-1.9,0.1-2.9c0.1-0.6,0.6-1.3,0.8-1.9c0.2-0.7-0.1-1.4,0.1-2.2
					c0.1-0.8,0.7-1.6,0.8-2.4c0.2-0.9,0-1.9,0.1-2.9c0.2-2,0.9-4.2,1.3-6.2c0.3-1.6,0.1-3.2,0.5-4.5c0.2-0.7,0.7-1.1,0.8-1.7
					c0-0.5-0.3-1.1-0.3-1.7c-0.1-1.3,0.3-2.2,0.4-3.1c0.1-0.3-0.3-0.6-0.3-0.7c0-0.3,0.4-0.5,0.4-1c0.2-2.5,0.6-5.4,1.3-8.1
					c-1.2-0.6-1.9-0.2-3.6-0.6c-3.1,5.5-3.5,14.8-2.7,20.8c-1.7,0.5-0.9,2.7-1.9,3.6c-0.9,0-1.7,0-2.6-0.1c-0.1,3.1-0.9,4.4-0.9,7.2
					c-1,0.3-0.4,1.8-1.5,2.1c-0.2,1,0.5,2.6-1.2,2.6c-0.4-1.6,0.6-3.1,0.9-4.8c0.1-0.7-0.1-1.6,0.1-2.4c0.1-0.6,0.7-1.3,0.8-1.9
					c0.3-1.6,0-3.3,0.1-5c0.3-3.2,1.3-7.6,1.4-10.5c0-0.4-0.5-0.6-0.3-1c0,0,0.7-0.2,0.7-0.2c0.1-0.2,0-0.5,0-0.7
					c0.3-1.9,0.1-3.6,0.5-5.3c0.3-1.3,1.8-2.5,0.8-3.8c-1.1-0.6-2.2,0.2-2.9-0.6c-1.6,1-2.3,2.1-2.6,3.5c-1,4.6,0.1,10.3-0.4,15.8
					c-0.2,2.2-0.9,4.3-1.3,6.4c-0.4,2.7-0.4,5.5-0.9,7.9c-0.1,0.5-0.7,1.1-0.8,1.7c-0.3,1.5-0.1,2.3-0.8,3.1
					c-0.3,0.7,0.4,0.9,0.3,1.4c-1.6,3.3-2.3,8.7-3.3,13.1c-1.6,1.3-1.3,4.3-2.7,5.2c-0.6,0.4-0.2,1.2-1.1,1.2
					c-2.2-2.3-0.5-5.8-0.1-9.6c0.3-2.7-0.4-5.1,0.9-6.5c-0.8-3.5,1.3-6.7,1.7-10.5c0.5-4.4,0.2-8.8,0-13.2c-0.7-0.2-1.3-0.4-2.2-0.5
					c-2.6,0.7-2.1,2.7-2.3,5c-0.2,2-0.8,4.2-0.5,6c-0.4,0.9,0.9,0.7,0.7,1.5c-1.1,0.2-0.8,1.4-1.2,2.1c-0.2,0.8,0.5,1,0.7,1.5
					c-1,0.4-1,1.5-1.2,2.1c-0.2,0.8-0.5,2-0.4,2.9c0,0.4,0.4,1,0.3,1.4c-0.3,2.2-1.5,4.3-1.6,6.4c0,0.6,1.1,0.5,1.1,1.2
					c-0.2,0.5-1.4,0.2-1.1,0.9c0.1,1.5-0.8,2.9-1.2,4.3c-0.2,0.6,0.1,1.3,0,1.9c-0.2,0.7-0.6,1.4-0.8,2.1c-0.2,0.7,0.1,0.6,0,1
					c-0.1,0.3-0.7,0.6-0.8,0.9c-0.2,0.7-0.2,1.7-0.4,2.4c-0.2,0.6-0.1,1.9-1.5,1.9c-0.5-4.3,1-8.6,1-12c0-0.5-0.4-1-0.3-1.4
					c0.1-0.7,0.7-1.4,0.8-2.1c0.1-0.3-0.3-0.9-0.3-1.2c0-1.4,0.8-3,1.2-4.5c0.5-2.2,1.1-4.5,1.3-6.7c0.1-1.1,0.7-2.8,0.8-4.1
					c0.1-0.7-0.1-1.3,0-1.9c0.1-0.5,0.6-1,0.8-1.4c0.5-1.6-0.1-3.3,1.2-4.8c0-1.4-0.2-3.6,0.1-5.5c0.2-1,1-1.8,0.8-2.6
					c-0.2-0.9-1.1-2.1-2.9-2.2c-2,1.1-2.1,3.1-2.3,5c-0.1,0.9,0.1,2-0.1,2.9c-0.4,2.7-1,5.9-1.3,8.6c0,0.4,0.4,0.8,0.3,1.2
					c0,0.8-0.6,1.7-0.8,2.6c-0.3,1.4-0.1,3-0.5,4.3c-0.2,0.5-0.7,1.1-0.8,1.7c-0.4,1.7-0.4,3.4-0.9,5c-0.2,0.8-0.6,1.4-0.8,2.1
					c-0.2,0.8-0.2,1.8-0.4,2.6c-0.1,0.4-0.6,0.6-0.8,0.9c-0.2,0.5-0.2,1-0.4,1.4c-0.7,1.9-1.1,3.4-2,5c-0.3,0.6-0.4,1.9-1.9,1.9
					c-0.6-1.6-0.6-2.7-0.3-4.3c0.3-1.7,0.8-3.2,1.2-4.5c0.1-0.4-0.1-0.8,0-1.2c0.2-0.5,0.6-0.5,0.8-0.9c0.5-1.8,0.4-3.8,0.9-5.7
					c0.2-0.8,0.9-1.6,1.2-2.4c0.3-0.9,0.2-1.9,0.4-2.9c0.2-0.9,0.6-1.7,0.8-2.6c0.2-1,0.2-2.1,0.4-3.1c0.7-3.1,2.1-6.1,2.4-9.1
					c0.1-0.7-0.1-1.5,0.1-2.2c0.2-1,1-1.9,1.2-2.9c0.4-1.6,0.1-3.3,0.5-4.8c0.4-1.6,1.4-2.9,1.2-4.5c-1.4,0.2-1-0.6-2.2-0.5
					c-1.4,0.3-1.8,1.1-2.2,1.9c-0.4,0.8-0.8,3.1-0.8,3.6c0,0.3,0.5,0.4,0.3,1c-0.1,0.6-0.7,1.1-0.8,1.7c-0.1,0.8,0.1,1.6-0.1,2.4
					c-0.1,0.6-0.7,1.3-0.8,1.9c-0.1,0.7,0.1,1.3,0,1.9c-0.1,0.6-0.6,1.1-0.8,1.7c-0.8,2.9-0.7,6.1-2,8.6c0.4,1.7-0.6,2.9-0.8,3.8
					c-0.2,0.7,0.1,1.5-0.1,2.2c-0.3,1.1-1.2,2-1.5,3.1c-0.4,1.4-0.5,2.9-0.8,4.3c-0.5,2.1-1.1,3.9-1.2,6c-1.7,1.7-0.5,5.3-3.1,6.4
					c0.3-2.1,0.1-4.2,0.5-6c0.1-0.6,0.7-1.1,0.8-1.7c0-0.4-0.3-0.8-0.3-1.2c0-0.6,0.2-1.8,0.4-2.6c0.4-1.4,0.9-2.1,1.2-3.1
					c0.4-1.5,0.7-3.1,0.9-4.8c1.8-1.7,1.4-4.1,2-6.4c0.6-2.4,2.1-5.1,1.6-7.4c0.6-0.3,1-0.8,1.1-1.4c0.3-0.7-1-0.5-0.7-1.2
					c1,0.1,1.2-0.3,1.1-0.9c-0.3-2.3,1.2-3.4,0.9-5.7c0.5-0.4,0.5-1.1,1.1-1.4c-0.6-1.7,0.9-2.6,0.5-4.8c-1.2-0.2-1.7,0-3.3-0.3
					c-1.5,1.5-2.4,3.4-3.1,5.4c-0.4,0.9,1.4,0.4,1.1,1.2c-0.1,0.6-1.7,0.1-1.5,0.9c0.1,1.9-0.5,3.3-0.8,4.5
					c-0.2,0.8-0.7,1.6-0.8,2.4c-0.1,0.9,0.1,1.8-0.1,2.6c-0.1,0.6-0.6,1.2-0.8,1.7c-0.4,1.4-0.6,2.8-0.8,4.1c-0.3,1.7,0,3.5-1.2,5
					c0.5,0.2,0.8,0.6,0.7,1.2c-1.9,1.6-2,4.5-2.4,7.1c-1.6,1.4-1,3.3-1.6,5c-0.3,0.8-1.2,1.6-1.5,2.4c-0.2,0.5-0.2,0.9-0.4,1.4
					c-0.6,1.9-1.2,4.2-2,5.5c-0.2,0.4,0,1.2-1.1,0.9c-1-5.6,0.9-10.1,1.1-15.8c0.5-0.5,0.7-1.3,1.1-1.9c-0.5-1.9,1.4-3.3,0.5-4.8
					c1.6-1.4,1.1-3.4,1.6-5c0.1-0.4,0.6-1,0.8-1.4c0.7-1.9,0.7-3.7,1.2-5.5c0.4-1.4,1.7-2.7,1.2-4.5c0-0.4,0.9-0.2,0.7-0.7
					c0-2,1.5-2.9,1.2-5c0.8-0.6,1-1.8,0.4-2.6c-1.2-1-2.4,0.4-3.6-0.6c0.7-0.9,0.2-2.1-0.3-2.9c-1.4,0.3-1.1,0.4-2.9,0.2
					c-1.5,1.2-1.3,2.6-1.6,4.5c-0.3,1.9-1.2,4.1-1.6,5.5c-0.3,1.2,0.3,3.4-1.5,3.6c-1.1-0.8,0.4-1.4,0.4-2.2c-0.9-2.4,0.9-5,0.9-7.7
					c1-0.6,1-2.2,0.1-2.9c-1.7,0.1-1.2,0.1-2.9,0.2c-1.9,1.5-2.2,4-2.7,6.2c-0.6,2.4-1.5,4.7-0.9,6.7c-1,0.5-0.6,1-0.4,1.9
					c-1.3,2.7-1.1,6.5-1.7,9.8c-0.1,0.5-0.7,1-0.8,1.4c-0.4,1.7-0.4,3.6-0.9,5.3c-0.1,0.3-0.7,0.7-0.8,0.9c-0.2,0.5,0.1,0.9,0,1.4
					c-0.6,2-1.2,4.3-2,6c-0.4,0.9-0.5,1.6-0.8,2.6c-0.1,0.4-0.6,0.8-0.8,1.2c-0.3,0.7-0.1,1.8-1.5,2.1c-0.5-1.7,0.6-3.2,0.9-4.8
					c0.1-0.5-0.4-1-0.3-1.4c0.3-3.8,1.8-7.4,1.4-11c1.3-3.3,1.3-6.3,1-10.1c-1.3-1-2,1.4-3.3,0.4c0.5-1.4,0.1-2.7,0.1-3.6
					c0.1-3.7,3.3-6.6,2.8-11c1-1,2.2-2.7,1.9-3.8c-1.4-0.7-2.6,0.3-4,0.4c-0.7,2.2-2,4-2,6.7c-1.5,2-1.5,4.1-2.3,6.2
					c-0.4,1-1.1,1.9-1.5,2.8c-0.4,0.8-0.6,1.5-0.8,1.9c-0.4,0.9-0.5,1.9-0.4,2.9c-1.1,1.6-1.6,3.6-1.6,6c-2.4,3.2-2.1,8.3-5,11.2
					c-0.5-3.3-0.1-6.4,0.6-9.3c0.3-1.4,0.9-2.6,1.2-3.6c0.2-0.6-0.1-1.3,0-1.9c0.1-0.5,0.6-1.1,0.8-1.7c0.6-1.6,0.5-3,0.9-4.8
					c0.1-0.5,0.6-0.9,0.8-1.4c0.9-2.9,0.5-6.1,1.3-9.1c0.4-0.7,1.3-1.3,1.5-2.1c0.2-0.6-0.1-1.1,0-1.9c-1.3-0.5-1.7,0.6-3.3-0.1
					c-1,0.3-1.2,1.1-2.2,1.4c-0.3,0.6-2.2,0.1-2.2,0.9c-0.6,0.9-1.4,1.7-1.2,3.1c-1,0.8-1.2,2.2-0.8,3.3c-0.7,0.7-0.8,1.9-0.8,3.1
					c-1.5,0.8-1.2,2.2-1.6,3.6c-0.1,0.5-0.6,0.9-0.8,1.4c-0.1,0.3,0.1,0.7,0,1c0,0.1-0.7,0.6-0.8,0.7c-0.6,1.8-1,3.6-0.8,4.8
					c-0.6,0.7-1.6,1.6-0.8,2.6c-0.3,0.4-1.2,0.3-1.1,0.9c0.2,1.9-1.2,2.6-0.8,4.5c-1.3,0.6-0.9,2.6-1.5,3.3
					c-0.5,0.5-0.1,1.9-1.5,1.6c-0.9-1-0.2-2.2-0.3-3.4c-0.1-2-0.3-4.3-0.2-6.7c0-0.8,0.1-1.6,0.1-2.4c0-1.8,0.2-3.2,0.5-4.3
					c0.5-1.8,1.3-3.3,0.5-5c-4.6-0.5-3.8,2.1-4.1,4.5c-0.2,1.3-0.8,2.1-0.5,3.6c-1.3,1.9-1.8,4.4-2,7.2c-0.4,0.3-0.5,1-1.1,1.2
					c-0.2,1-0.1,2.2-1.2,2.6c0,1.1,0.3,2.5-1.5,2.4c-0.9-0.8,0.3-1.8,0.4-2.6c-0.2-3.5,0.4-8.5,1-12.2c1.2-0.8,1.6-2.8,0.1-3.6
					c-1.6,0-2,0.9-3.3,1.1c0.2,1.8-2.1,3.2-0.5,4.5c-2.1,1.4-1.9,4.1-2.7,6.2c-0.2,0.4-0.7,0.6-0.8,0.9c-0.1,0.4,0.1,0.9,0,1.4
					c-1,1.2-1.6,2.8-2.3,4.3c-0.7,1.5-1.2,3-1.9,4.5c-1.1,2.3-2.3,4.5-3.8,6.1c-0.4,0.4-0.5,1.7-1.9,1.2c0.9-3.6,0.6-7.9,0.7-11.5
					c1.2-1.3,1.2-3.2,1.6-4.8c0.5-1.7,1.2-3.4,1.2-5.3c1.3-1.6,1.8-3.6,2-6c0.7-0.7,0.8-1.5,1.2-2.4c1-2.6,2.2-5.2,2.8-8.1
					c0.6-0.8,1.3-1.5,1.2-2.9c-1.8-0.6-2.6,0.5-4.8,0.8c-1.6,1.8-1.1,5.1-2.7,6.9c0,0.7,0.6,1,0.7,1.7c-0.8,1.5-1.1,3-1.6,4.5
					c-0.7,2.2-1.6,3.9-1.6,6.2c-0.9,1.5-1.6,3.1-1.6,5.2c-1,1.1-2,2.2-1.9,4c-0.9,0.7-1.3,1.9-1.9,2.8c-0.9,1-0.8,2.6-2.3,2.8
					c-1.4-1.7,0-5.2-0.9-7.2c0.5-0.1,0.7-0.5,0.8-0.9c-0.6-1.9,1.1-5.1,0.5-6.9c0.7-0.9,1.2-1.9,1.2-3.3c0.1-0.6,1.3-0.4,1.1-1.2
					c0-1,0.4-1.7,1.1-2.1c-0.1-2,2.2-4.2,0.5-5.7c-2.5-0.3-2.8,1-4.4,1.3c0.2,1.1-0.3,1.7-1.2,2.1c0.9,1.9-1,3.6-0.9,5.7
					c-0.6,0.5-1.3,0.9-1.5,1.6c0.4,2.3-1.5,4.2-2,6c-0.3,1,1.2,2.5-1.2,2.9c-0.3-2.9,0.3-5.9,0.6-9.1c1.1-0.9,1.2-2.4,1.2-4.1
					c0.9-1.4,2.6-3.1,1.9-4.8c-3.4-0.5-3.5,1.3-5.2,2c-0.4,1.4-0.6,2.8-1.2,4.1c-0.4,0.9-1.2,1.7-1.5,2.6c-0.4,1-0.8,1.9-0.8,3.1
					c-1.3,0.2-0.7,1.8-1.9,2.1c0,0.6,0,1.3,0,1.9c-0.9,0.4-1.4,1.1-1.9,1.9c-0.9,0.9-0.3,2.9-2.6,2.8c0.1-3.8-0.2-7.5,0.3-11
					c0.4-2.5,1.9-4.6,2-6.9c0.5-0.6,1.4-1,1.2-2.1c-0.4,0-0.9-0.1-0.7-0.5c-1.8-0.2-2.5,0.4-3.7,0.6c-0.1,0.5-0.9,0.8-1.1,1.2
					c-0.2,0.3,0.4,0.5,0.3,0.7c0,0-0.7,0.4-0.7,0.5c-0.4,0.9-0.5,2-1.5,2.8c-0.1,1.2-0.3,2.4-1.2,3.1c-0.2,0.6,0.7,0.5,0.3,1.2
					c-0.7,0.4-0.6,1.4-1.5,1.6c-0.4,1.7-0.5,3.6-1.2,5c-0.2,0.3-0.9,0.6-1.1,0.9c-0.4,0.5,0.2,1.5-1.1,1.2c0-0.9-0.6-1.4-0.7-2.4
					c-0.1-1,0.4-2.2,0.4-2.6c0-0.3-0.4-0.3-0.3-0.7c0.1-0.4,0.6-0.8,0.8-1.2c0.5-1.5,0.1-3.1,0.5-4.5c0.1-0.4,0.6-0.8,0.8-1.2
					c0.1-0.5-0.1-1,0-1.4c0.7-2.6,3.1-5.2,2-7.9c-3-0.1-4.3,1.1-5.9,2c-0.2,1.7-1.5,3.4-2,5.2c-0.4,1.7,0.3,3.7-1.6,4.8
					c0,0.6,0,1.3,0,1.9c-1,0.8-1.6,1.8-1.5,3.3c-1,1.3-2.2,2.8-3,3.8c-0.3,0.4,0,1.3-1.1,1.2c-0.8-2.2-0.6-5.8-0.5-7.7
					c0-1,0.2-2.1,0.1-3.1c-0.3-2.5,1.4-5,0.6-7.4c-2-0.7-3.1,0.4-4.8,0.6c-0.7,2-2.4,3.4-2.3,5.9c-1.9,1.4-2.3,4.4-3.4,5.9
					c-0.6,0.8-1.3,1.9-2.3,2.6c-0.7-2.9-0.9-6.2-0.2-8.4c0.2-0.6,0.7-1,0.8-1.2c0.1-0.4-0.3-0.5-0.3-0.7c0-0.3,0.4-0.5,0.4-1
					c0-0.7-0.1-1.5,0.1-2.2c0.4-1.9,2.3-3.9,1.2-6c-1.3-0.1-1.8,0.4-2.9,0.4c-1.6,1-2.1,4-1.6,5.7c-0.5,0.2-1.2,0.3-1.1,0.9
					c0,0.6,0,1.3,0,1.9c-0.9,0.4-0.8,1.4-0.8,2.4c-1.5,1.1-1,3.5-3,4.2c-0.2,1.1-0.2,2.5-1.9,2.6c-0.7-2.8-0.7-5.8-1.6-8.9
					c1.1-1.2,0.7-3.1,0.9-4.8c0.2-2,1.6-4.5-1-5.1c-2.4,0.1-1.9,2.1-4.4,2.1c-0.2,1.9-2,3.4-1.2,5.3c-0.7,1.6-1.5,3.2-1.6,5.2
					c-0.9,0.5-0.9,1.7-1.9,2.1c0.6,1.6-1.4,3.2-1.9,4.8c-1.2,0.2-0.2,2-1.9,1.9c-1.5-0.8-1.1-2.4-1.4-3.9c-0.6-2.6-1.9-7.1-0.1-9.4
					c-0.2-1.4-0.1-3.3,0.1-5c0.2-1.3,1.3-2.5,0.1-3.4c-2,0-3.5,0.6-4.1,1.6c-0.7,1.1,0,2.7,0.3,4.1c-0.8,2.1-1.5,5.2-0.9,7.4
					c-0.5,0.7-1.5,1.5-0.8,2.4c-1.1,1-1.9,2.1-1.9,3.8c-0.8,0.7-1.6,1.4-1.5,2.6c-2.4,0.9-2.1,3.6-4.9,4.2c-1.5-1.3-0.2-2.9-0.3-4.3
					c0-0.6-0.6-1.1-0.7-1.7c-0.4-2.2-0.2-5.1,0.2-7.4c0.1-0.6,0.7-1.2,0.8-1.7c0.2-0.8,0-1.6,0.1-2.4c0.3-2.1,1.1-4.2,1.2-6.2
					c0.1-0.8,0-1.5-0.3-1.7c-0.2-0.1,0.4-0.3,0.4-0.2c0.1-0.3,0.1-0.7,0-1c-0.1-0.9-0.3-2-1-2.7c-2.4-0.2-2.7,1.1-4.4,1.3
					c-0.2,1.2-1,1.9-1.5,2.8c0.7,3.1-1.9,5.5-1.3,9.3c-1,1.1-1,1.7-1.2,3.1c-1.2,1.3-1.9,2.9-2.3,4.7c-1.7,1.2-1.8,3.7-3.8,4.7
					c-0.5,0.9-1,1.8-1.9,2.4c-0.6,0.9-0.5,2.3-3,1.8c-0.4-3.9-0.2-8.1-0.1-12.2c0-0.8,1-0.8,0.8-1.7c-0.5-2.6,1.1-4.2,1.6-6.4
					c0.1-0.5,0.5-1.7,0.4-2.4c0-0.7,0.4-1.9-1.4-2c-1.4-0.2-1,1-1.9,1.2c-0.5-0.7-1.2,0.6-1.8,0.7c-0.7,1.7-0.7,3.7-1.6,5.2
					c-0.3,1,0.3,1.4,0.3,2.2c-0.7,1-1.5,2.1-1.9,3.3c-0.2,0.4,0.1,1,0,1.4c-0.3,0.9-1.1,1.9-1.5,2.8c-0.5,1-0.3,2.4-1.9,2.6
					c0.1-0.8-1-2.4-1-2.9c0-0.5,0.5-0.8,0.4-1.2c0-0.1-0.7-0.6-0.7-0.7c-0.1-0.4,0.1-0.8,0-1.2c-0.3-1.5-0.9-2.8-1-3.9
					c-0.3-2.7,0.7-5.5-0.2-8.4c0-1.2,0.7-1.6-0.3-2.4c-2.6-0.7-2.3,0.9-4.4,1.1c-1.1,1.2-0.8,2.3-0.8,3.6c0,3.2-2.9,5.1-2.4,8.1
					c-1.8,1.5-1.6,4.5-3.8,5.7c-0.8-1-0.1-2-0.3-3.1c-0.2-1.2-1.3-2.4-1.4-3.6c-0.1-0.8,0.4-1.5,0.4-2.4c0-0.7-0.3-1.3-0.3-1.9
					c0-0.9,0.9-2.1-0.3-2.9c-2-0.2-2.1,0.8-3.7,0.9c-1.7,3.2-1.5,7.7-4.6,10c-0.8,0.6-0.4,2-2.2,1.9c-1.8-0.6-2.2-2.1-2.1-3.9
					c-2.3-1.8-1.2-5.7-3.5-7.5c-1-0.2-1.9-0.4-2.9-0.3c-1.5,0.2-2.2,1.6-3,2.3c-0.9,0.9-1.1,1.2-1.5,2.1c-0.5,1.1-1.2,2.3-1.9,3.3
					c-0.2,0.3-0.6,0.7-0.8,0.9c-0.7,1.1-1.5,2.7-3,2.8c-1.4-0.4-2.7-1.3-3.6-2c-0.3-0.2-0.1-0.5-0.3-0.7c-0.2-0.2-0.9-0.3-1.1-0.5
					c-1.5-1.3-2.4-2.8-3.6-4.2c-1.1,0.1-1.6-0.3-2.2-0.3c-1.9,0.1-1.8,1.3-3.7,1.3c-1.6-0.4-2.2-1.5-2.9-2c-0.3-0.2-0.4-0.5-0.7-0.7
					c-0.3-0.2-0.4-0.5-0.7-0.7c-0.6-0.4-1.1-1.3-1.4-1.5c-0.2-0.1-0.2-0.4-0.4-0.5c-0.3-0.2-1.1-0.1-1.5-0.3c-0.3-0.2,0-0.8-0.7-0.7
					c-0.5-0.5-1.9-0.5-2.2-1.3c-2.5-0.1-4.3-0.7-6.6-0.6c-2,0-4,0.9-6.2,0.6c-3.9-1.4-6.8-3.5-11.6-4.4C56.2,70,53,68.7,47.5,69
					c-1.1,0.3-2.1,1.3-3.7,1.4c-3,0.2-4.5-1.3-6.5-1.6c-0.9-0.1-2.2,0.2-2.9,0.2c-2.2-0.1-4.4-0.5-6.6-0.4
					c-3.7,0.1-6.9,0.9-10.3,1.2c-0.9,0.4-1.6,0.9-3.3,0.6c-0.9,0.7-1.9,0.9-3,0.9C8.9,72,6,72.4,3.9,73.4c-0.6,0.8-2.8,0.5-3,1.6
					C1.7,75.5,1.3,75,2,74.8c0.1-0.5,1.6-0.1,2.2-0.2c1.1-0.9,3.1-1,4.8-1.3c1.7-0.3,3.4-1,5.5-0.8c0.7-0.7,2.3-0.8,3.7-1.1
					c1.2-0.3,2.7-0.7,4-0.9c3.1-0.3,6.9-0.1,9.5,0c3.1,0.1,4.8,0.4,6.9,0.7c0.7,0.1,0.3,0.9,1.4,0.8c0.9,0,1.7,0,2.6,0.1
					c1.3,0.2,0.7,1.5,1.8,1.7c0.9-0.2,0.8-1.1,2.2-0.9c0.6-0.5,0.4-1.5,1.5-1.6c0.9,0.5,2.9,0.2,4.4,0.3c1.1,0.5,2.4,0.9,4,1.1
					c1.9,1.3,4.7,1.9,6.9,2.8c0.9,0.4,1.4,1.1,2.5,1c1.3,1.2,2.4,2.5,5.1,2.8c1.2-0.1,1.3-0.9,2.2-1.1c1.8,0,2.9-0.6,4.4-0.6
					c2.4,0,4.1,1.1,6.2,1.6c1.9,1.2,3.1,2.8,4.7,4c0.6,0.4,1.5,0.6,1.8,1.2c-0.1,0.9,0,1.6,0.3,2.2c1.3,0.1,1.6,0.7,2.9,0.8
					c1.7-0.5,2.1-1.8,4.4-1.8c1.2,0.7,1.9,1.7,2.5,2.7c1.5,0.6,2.2,1.6,3.6,2.2c0.4,0.9,1,1.7,2.1,2.2c1.6,0.2,2.4-0.1,3.7-0.1
					c2.7-1.8,4-4.7,6-7.1c0-0.4,0-0.8,0-1.2c1.7-0.7,1.1-3,3.7-3c0.5,0.7-0.2,1.2,0.3,2.2c1.4,1,1,3,2.1,4.1c0,1.3,0.4,2.4,1,3.4
					c-0.5,1.6,0.6,2.1,1.8,2.7c5.4-0.1,5.7-3.7,8.5-5.5c0-1.2,0.5-2.1,1.5-2.6c0.4,1.9,1.5,3.5,0.6,5.1c0.5,0.6,1,1.1,1,1.9
					c-0.6,1.2-1.3,2.5,0.3,3.4c2.6,0.1,3.8-1.4,4.8-2.8c0.9-1.1,1.7-2.7,2.3-3.8c0-0.1,0.7-0.3,0.7-0.5c0.6-1.3,0.7-3.5,1.2-4.5
					c0.9-1.8,1.1-3.7,2-5.5c0.1-1.2-0.9-2.2,1.2-2.4c0.4,2.4-0.6,4.8-0.5,7.2c0,1.8,1.1,4.2,0.9,6c-0.1,0.6-0.5,0.9-0.4,1.4
					c0.2,1.2,1.5,2.9,1,3.6c-0.1,0.2,0.4,0.4,0.4,0.5c0,0.4-0.1,0.6,0,1c0.2,0.8,0.3,1.4,0.7,2.2c2.1,0.1,3-0.7,4.4-1.1
					c0.7-1.5,1.3-3.2,2.7-4.3c0-1.5,0.7-2.4,1.5-3.3c0.5,3.3-2.2,6.9,0.1,9.8c-1,1.4-0.9,3.5,1.4,3.9c1.8,0.3,2.7-1,3.3-1.4
					c2.2-1.2,3.8-3.7,4.9-4.9c2.7-3.3,4.1-6.2,5.7-8.3c0-0.6,0-1.1,0-1.7c0.7-1.1,1.9-2.3,2.3-3.8c0.2-0.8-0.1-1.8,0.1-2.6
					c0.1-0.6,0.6-1.1,0.8-1.7c0.7-2.4-0.2-5.4,2-6.9c1,1.5-0.3,3.1-0.8,4.3c0.9,4.4-2.4,9.2-1.1,13.9c-1.9,1.3,0.4,3.9-0.9,5.5
					c1,1.2,1.1,2.9,0.6,4.3c0.9,0.5,1.1,1.4,2.5,1.5c1.7-0.1,3.1-1.3,3.7-1.8c0.5-0.4,0.8-0.8,1.1-1.2c0.1-0.1,0.6-0.3,0.7-0.5
					c1.4-1.5,1.8-3.5,3.8-4.7c0.3-1.1,0.5-2.2,1.5-2.8c0.8,1.3,0.9,3.1,2.1,4.1c-0.6,0.4-0.7,1.1-0.8,1.9c0.8,0.3-0.1,1.6,1.4,1.5
					c0.5,0.5,1.9-0.5,2.9-0.4c1.2-1.2,1.9-2.7,3.4-3.8c0.6-2.5,2.9-3.8,3.1-6.6c1.4-1.3,2.1-3.1,2-5.5c1.3-0.6,0.1-2.9,1.9-3.1
					c0.2,1.6-0.6,3.6-0.5,5.7c0,0.4,0.3,1,0.3,1.5c0.4,3.4-1.2,6.7,0.5,9.1c1.9,0.2,2.8-0.2,4-0.4c1.6-1.2,2.8-2.7,3.8-4
					c0.3-0.4,0.4-1.3,1.5-1.2c1,1.3-0.4,4,0.6,5.3c-1.2,0.8-1.1,2.8,0.7,3.1c2.6-0.2,3.1-1.9,4.8-2.8c0.5-2.5,3-3.6,3.1-6.4
					c1.2-0.8,1.6-2.5,2.3-3.3c0.2-0.2,0.6-0.3,0.7-0.5c0.3-0.3,0-1.3,1.1-1.2c-0.2,3.1-2.2,9.2,0.1,11.8c-0.8,1.2-0.1,2.7,0.6,3.6
					c1.2,0.3,2-0.3,3.7-0.2c2.1-2.1,3-4.9,4.9-7.1c0-0.6,0-1.1,0-1.7c1.5-1,1.2-3.4,2.7-4.5c0.3-0.5-0.6-1.9,0.8-1.7
					c-0.3,3.4-1.1,5.2-2,7.9c1.3,0.2,0,1.4-0.1,2.2c1.2,1.4,0.4,2.8,1,4.3c-0.6,0.6-1.8,1.7-0.8,2.6c1.3,0.5,1.5-0.4,3.3-0.2
					c2.2-2.2,4.4-5.2,5.7-8c0.1-0.3-0.1-0.7,0-1c0-0.1,0.7-0.3,0.7-0.5c0.1-0.3-0.7-1.5,0.8-1.2c0.5,3.2-1.7,5.3,0.2,7.4
					c-1,1.3-1.5,3,0.3,4.1c1.5,0.2,1.7-0.4,2.9-0.4c2.9-2.2,5.2-5.5,6.8-8.2c0.2-0.4-0.3-1.4,1.1-1.2c1.3,0.2,0.5,0.9,0.3,1.4
					c-0.1,0.5-0.7,1.3-0.8,1.9c-0.1,0.5,0.4,1.2,0.3,1.9c-0.1,1.8-0.8,3.2,0.6,4.1c2.4,0.2,2.6-1.1,4.1-1.6c0-1.2,0.1-2.2,1.5-2.4
					c0,2.4,0.8,4.6,0.5,7.7c-0.1,1-1.3,1.4-0.4,2.4c1.6,0.4,1.9-0.1,3.7-0.1c0.9-0.3,0.7-1.1,1.1-1.7c0.2-0.2,0.9-0.3,1.1-0.5
					c0.3-0.3,0.2-0.8,0.4-1.2c0.3-0.5,0.8-1.1,1.1-1.7c0.3-0.5,0.1-1.7,1.5-1.6c0.6,0.6-0.6,1.6-0.4,2.6c0.5,2.9-1.2,6,0.2,7.9
					c0.9-0.2,2-0.3,3.3-0.2c1.4-0.7,1.7-2.2,3.4-2.8c-0.4-0.6,0.4-0.9,0.8-1.4c0.8-1.1,1-1.9,1.5-2.8c0.2-0.4,0.9-0.8,1.1-1.2
					c0.2-0.4,0.2-1.2,0.4-1.7c0.6-1.6,1-3.2,2.3-4.5c-0.3-0.9,0.4-1.7,0.8-2.6c0.3-0.8-0.1-2.3,1.9-2.1c-0.5,1.9,0.5,3.6,0.2,5
					c-0.2,1.1-1.4,1.9-1.2,3.1c1.1,0.7,1.4,0.5,2.9,0.8c3.9-1.8,4.1-6.3,6.4-9.2c1,2.4-0.3,4.9-0.2,7.4c0.1,1.1,0.9,2.2,0.6,3.4
					c0.3,0.7,1.8,0.6,2.2,1.3c0.4,0.5,0.9,1,0.7,1.9c1.6-0.3,0.9,0.8,2.2,0.8c2.7-0.5,2.8-2.8,4.8-3.7c0.2-1.2,1-2.6,1.5-3.3
					c0.2-0.3,0.4-0.9,1.1-0.7c-0.2,2-0.1,3.8,1,5.1c0.9,0.8,2.3-1,2.9,0.3c-0.9,1.3-1,3.2-2.3,4.3c-0.3,0.7,0.6,0.7,0.3,1.4
					c-0.5,1.9-3.6,6.2,0.6,7c2.6-0.8,2.8-3.6,3.8-4.9c1.7-2.3,2.6-4.7,2.4-8.1c1.1,0,0.1-1.6,1.5-1.4c0,2.7,0.1,5.5,1.3,8
					c0.8,0.7,1.2,0.1,2.2,0.5c0.3,0.8,0.3,1.7,1.8,1.7c2-0.5,3-1.7,3.4-3.3c1.4-1,1-3.2,2.7-4c1.5,0.8-0.1,1-0.1,2.2
					c-0.4,2.2-2.8,6.4,0.2,7.9c2-0.1,2.9-1.1,3-2.6c1.5-0.6,1.4-2.3,2.3-3.3c1.1-1,1.1-2.4,1.6-3.8c0.1-0.3,0.6-0.5,0.7-0.7
					c0.6-1.2-0.4-2.5,1.2-2.9c1.7,1.4-0.7,3.3-0.1,5.5c-0.2,0.5-0.6,0.9-0.8,1.4c-0.2,0.9,0.3,2.4,0.3,2.6c0,0.3-0.4,0.3-0.4,0.7
					c0.2,1.1,0.8,2.4,1.4,3.2c4.2,0.1,4.5-3.1,5.6-4.9c0.4-0.6,0.3-1.7,1.5-1.4c-0.1,1.7-1.1,3.6-1.2,5.3c0,0.3,0.3,0.7,0.3,0.7
					c0,0.3-0.5,0.4-0.4,1c0.1,0.5,0.6,1.7,1.8,1.7c1.7,0.4,1.4-0.4,1.8-0.7c0.3-0.2,1.3-0.7,1.5-0.9c0.2-0.2-0.1-0.7,0-1
					c0.1-0.1,0.6-0.5,0.7-0.7c0.3-0.6-0.3-1.4,0.8-1.7c1.7,0.2,0.8,2,2.5,2.2c3.2-0.1,3.2-2.5,4.8-3.7c0-0.5,0-1,0-1.4
					c1.4-0.6,0.9-2.5,2.6-2.8c0.7,1-0.3,2.2-0.5,3.6c-0.1,1,0.3,2.1,0.3,3.4c0,1.3-0.7,2.8-0.5,3.6c0.3,0.9,1.2,1.6,1.8,2.2
					c2.3,0,3.2-1.3,3.7-2.3c0.4-0.7,0.1-1.1,0.4-1.7c0-0.1,0.7-0.3,0.7-0.5c0.9-2.1,0.6-4.9,2.7-6.2c0,1.4,0.5,2.5,1,3.6
					c3.6,0.4,3.1-2.1,5.2-2.8c0.6-0.5-0.1-2.1,1.5-1.9c-0.8,0.5,0.1,1,0.3,1.4c-1.1,2.5-2,6.6,0.2,8.6c1,0.2,1.4-0.1,1.8-0.2
					c0.4-0.1,1.2,0,1.5-0.2c0.1-0.1-0.1-0.4,0-0.5c0.8-0.5,0.9-0.8,1.1-1.4c0.1-0.3,0.6-0.3,0.7-0.5c0.5-0.7,0.8-1.7,1.2-2.4
					c0.4-0.7,0.6-1.7,1.5-2.1c0.9,1.9-0.7,4.1-0.1,6c0.8,0.3,0,1.6,1.4,1.5c2,0.5,2.7-2,4.5-2.5c2,0.3,2.1-0.7,3.3-0.9
					c0.6-0.9,1.1-2.3,1.5-2.8c0.4-0.5,0.9-1.6,1.9-1.4c0.6,1.8-1.2,5.7,1.3,7c3.2,0.2,2.8-2.1,4.5-3c0.3-3,2.3-4.8,3.1-7.4
					c0.7,1,1.9,1.9,2.1,2.9c0.1,0.5-0.3,1.2-0.4,1.7c-0.2,0.7-0.4,1.4-0.8,2.1c0.8,0.9,0.8,2.3,1.4,3.4c4-0.6,3.6-2.4,4.5-4.7
					c0.6-1.6,1.6-3.2,1.9-4.8c1.5,0.4,2.3,1.7,2.5,2.7c0.1,0.7-0.3,1.3-0.4,2.2c-0.4,2.7,0.5,5,0.9,6.7c1,0,2,0,2.9,0.1
					c3.3-3.8,3.2-10,6.6-13.8c0.4-2.7,1.9-4.7,3.1-6.9c0.7-0.6,0.2-2,1.9-1.9c-0.5,1.6,0,3.6-0.5,5.5c-0.1,0.4-0.5,0.5-0.8,0.9
					c-0.7,1.2-0.2,2-0.1,3.1c0.3,3.2-0.6,8.9,0.5,10.8c0.4,0.6,0.4,2,1.8,2c3.9-0.4,4.3-3.3,6-5.4c2.2,0.1,3.4-0.4,4.8-0.8
					c1.4,0.8,2.6,1.6,5.1,1.1c0.6-0.8,0.9-1.8,1.9-2.4c0.7-3.7,2.6-7.4,3.6-10.7c0.3-1.2,0-2.7,1.6-3.6c0.1,2.3,0.9,5.2,0.2,7.7
					c-0.2,0.6-0.8,1-0.8,1.7c0,1.6,0.8,2.3,1.4,3.2c0.3,0.4-0.2,1.5,1.1,1.2c2.6,0,2.7-1.8,3.4-2.8c0.2-0.3,0.2-1.3,1.1-1.2
					c0,1,0.1,2-0.8,2.4c1.3,3.3-2.8,8.1,0.5,10.6c0.2,0.5-0.5,1.4,0.7,1.2c3.7,0.3,2.1-3.1,4.1-4c-0.1-1.5,1-3.7,1.6-4.5
					c0.2-0.3,0.3-0.6,0.4-1c0.6-2.3-0.6-4.9,2.3-5.9c0.9,1,1.9,2,1.7,3.6c1.7,0.2,2.4-0.3,3.7-0.4c0.7-1.3,0.9-3,1.6-4.3
					c0.8,1.8,0.6,4.5-0.5,6.2c1.5,1.1-0.8,4.6,3.2,4.2c2.4-1.9,2.4-5.5,3.9-8.1c1.6-0.4,1.9-0.2,3.3-0.6c1.5-1.2-0.1-4.4,1.6-5.2
					c2,0.5,0.1,1.9,0.3,3.1c0.1,0.8,0.9,1.3,1,1.9c1.3,0.1,2.1,0,2.9-0.2c1.4-1,1.1-2.5,1.6-3.8c0.4-1.3,1.2-2.5,1.6-3.8
					c0.1-0.4-0.1-1,0-1.4c0.1-0.6,0.6-1.1,0.8-1.7c0.5-1.8,0.7-3.7,1.2-5.3c0.2-0.5-0.3-1.4,1.1-1.4c0.9,0.8,0.1,2-0.4,2.6
					c0.9,0.3,0.7,1.3,0.7,2.2c-0.2,0.5-0.6,1-0.8,1.7c-0.5,2.3-0.4,5.6-0.2,8.2c0,0.5,0.7,1,0.7,1.5c0.1,0.8-0.9,1.1-0.4,1.7
					c1,0.2,0.7,1.3,1.4,1.7c1.2,0.1,1.6-0.4,2.9-0.2c1.1-2,2-5.2,2.7-6.7c1-2.7,0.8-5.1,2-6.9c0.2-0.8-0.6-0.9-0.3-1.7
					c1.8-2,0.6-5.7,2.4-8.1c-0.1-2.3,0.3-5.3,0.6-7.9c0.1-0.5,0.7-1,0.8-1.4c0.1-0.5-0.4-1.1-0.3-1.7c0.1-0.5,0.4-1.1,0.8-1.4
					c1.1,0.4,0.7,1.8,0.3,2.9c1.5,1.2-0.6,3.3,1,4.3c-1.8,1.8-0.9,5.2-0.9,7.4c-0.1,0.6-1.3,0.4-1.1,1.2c0.1,0.5,1,0.5,0.7,1.2
					c-0.6,1.2-1,2.9-1.2,4.5c-0.2,1.3-0.5,2.8-0.5,3.8c0,0.9,0.3,1.6,0.7,2.2c-1.4,1.1-0.4,3-0.5,5c0,0.5-0.3,0.9-0.4,1.4
					c-0.4,3.6-0.5,6.6,1.6,8.7c1.3,0.2,1.4-0.3,2.6-0.2c1.3-1.4,1.9-3.4,2.7-5.2c0.4-0.9,0.9-1.7,1.2-2.6c0.3-1.1,0.2-2.2,0.4-3.3
					c0.4-1.6,1.4-3.2,1.6-4.8c0-0.3-0.3-0.9-0.3-1.2c1.1-1.4,1.3-3.7,1.6-5.5c0.1-0.8-0.5-2.1,0.8-2.4c0.8,1.2,0.7,2.5-0.4,3.4
					c0.5,0.2,1.1,0.4,1.1,1c-1.3,1.1-1.5,3.1-0.9,5c-1.3,0.6-0.3,1.9-0.4,3.1c-0.1,1.1-0.2,1.9-0.1,2.9c0.1,1.1-0.5,2.2-0.4,3.3
					c0.1,1.8,1.1,3.5,1.7,4.8c1.8,0.3,2.2-0.4,3.3-0.6c0.9-1.8,1.5-3.8,2-5.2c0.2-0.8,0.2-1.4,0.4-2.1c0.1-0.3,0.6-0.5,0.7-0.7
					c0.2-0.4-0.1-0.8,0-1.2c0.4-1.4,1.2-2.9,1.6-4.5c0.3-1.4,0.5-2.9,0.8-4.3c0.3-1.5,0.7-2.9,0.8-4.3c0.4-3.2,1.2-5.2,0.9-7.9
					c1-1.2,0.6-2.6,0.8-4.3c0.1-1.2,0-2.9,1.5-3.1c0.8,2.9,0.1,5.3,0.2,8.6c0.1,0.7-0.8,0.7-0.8,1.4c1,0.9-0.4,1.9-0.1,3.1
					c-0.3,0.9,0.9,1,0.7,1.9c-0.3,0.3-0.9,0.7-1.1,1.2c-0.2,0.4,0.5,0.6,0.3,1c0,0-0.7,0.2-0.7,0.2c-0.8,1,0.3,2.4,0.3,3.4
					c-1,0.9-0.5,1.6-0.1,2.6c-0.7,0.3-0.8,1-1.1,1.7c0.2,3.3-0.9,5.5,0.2,7.2c-0.5,0.2-1.4,0.2-1.1,0.9c0.1,3.1-0.9,7,0.9,9.1
					c1.4,0.2,1.6-0.4,2.9-0.2c0.9-0.7,1.4-1.6,1.2-3.1c1.4-0.8,1.4-2.2,1.9-3.3c0.5-1.2,1.3-2.3,1.6-3.6c0.1-0.4-0.1-1,0-1.4
					c0.3-0.6,0.9-1.2,1.1-1.9c0.3-0.9,0.2-2,0.4-2.9c0.3-0.8,0.9-1.6,1.2-2.4c0.6-2.2,0.4-4.7,0.9-6.9c0.2-0.9,1.1-2.5,1.2-3.1
					c0.1-0.2-0.4-0.3-0.4-0.5c0.3-1.3,0.9-2.5,1.2-3.8c0.3-1.7,0.2-3.2,0.5-4.5c0.3-1.6,0.8-2.7,1.2-3.6c0.2-0.4-0.4-1.3,0.8-1.4
					c1.6,0.6,1,2.4,1,3.9c0,2.8-0.5,5.7-0.2,7.4c-0.7,0.6-0.8,1.4-0.8,2.1c0,0.7,0.6,1.2,0.7,1.9c0,0.4-0.2,1.5-0.4,1.9
					c-0.1,0.3-0.5,0.9-1.1,0.9c-0.1,0.8,1,0.8,0.7,1.7c-0.5,0.4-1.2,0.6-1.1,1.4c-0.3,1.3,0.1,2.3,0.7,3.1c-0.2,0.4-1.2,0.2-0.8,0.9
					c0.6,2.7-0.7,5.9,0.1,8.9c-0.2,0.5-0.9,0.7-0.8,1.4c0.7,1,1.2,2.1,1.4,3.4c4.3,0.6,4.1-1.9,4.8-3.5c0.3-0.7,0.8-1.5,1.2-2.1
					c0.5-1,0.4-2.1,1.5-2.6c0.2-0.9,0.2-1.8,0.4-2.6c0.1-0.3,0.6-0.6,0.8-0.9c0.2-0.4-0.1-1,0-1.4c0.6-1.9,1.2-3.5,1.6-5.2
					c0.2-0.9,0.1-2,0.4-2.9c0.2-0.5,0.7-0.7,0.8-1.2c0.4-1.6,0.1-3.3,0.5-5c0.3-1.1,1-2,1.2-3.1c0.1-0.6-0.1-1.1,0-1.7
					c0.2-0.6,0.7-1.3,0.8-1.9c0.3-2.1-0.2-3.5,1.6-4.3c0.9,4.4-0.6,8.8-1.4,12.7c-0.2,1,0.2,1.6,0.7,2.2c-1.9,0.3-0.8,2.6-1.9,3.3
					c0.5,0.7,0.2,1.9,0.7,2.7c-0.6,0.6-0.8,1.4-1.2,2.1c0.5,3.1-2.4,7.3,0.1,10.3c1-0.2,2.3-0.2,3.3-0.4c0.8-0.9,0.6-1.8,0.8-2.6
					c1.7-3.1,3.4-6.7,4.3-10c0.9-3.4,1.5-6.3,2.4-9.5c0.3-1.3,0.8-2.6,1.2-3.8c0.8-2.7,1.1-5.9,2.4-7.9c-0.1-0.8,0.1-1.5,0.4-2.2
					c0.2-0.4,0.7-1.4,1.5-1.4c1.5,0.4,0.4,2.5,0.6,3.6c0.1,0.6,0.4,1,0.7,1.5c-1.5,1.4,0.3,3.2-1.2,4.5c0.7,1.5,0.2,2.9-0.5,3.8
					c-0.1,0.6,0.6,0.8,0.7,1.2c-1.5,0-0.7,1.4-1.5,1.9c0.9,1.9,0.7,4.5-0.5,6.5c1.1,2.3-2,5.4,0.2,7.7c-0.1,0.6-1.3,0.4-1.1,1.2
					c0.9,1.2,0,2.7,0.3,4.1c0.1,0.3,0.6,0.6,0.7,1c0.2,0.6-0.3,1.1,0.3,1.4c3.7-0.1,4.5-2.3,4.9-4.7c1.4-1.2,1.4-2.7,1.9-4
					c0.4-1.1,0.8-2,1.2-3.1c0.7-2.1,1.3-4.3,2.3-6.2c0.6-2.4,1.4-4.8,2-7.4c0.2-0.6,0.3-1.3,0.4-1.9c0.5-2.1,1.6-3.8,2-5.5
					c0.3-1.2-1.1-2.9,1.5-3.3c0.3,3.8-1.2,6.4-1,10.1c-0.2,0.4-0.6,0.9-0.8,1.4c-0.1,0.3,0.4,0.5,0.3,0.7c-0.1,2-1.5,4.6-0.5,6.2
					c-1.2,0.5-0.7,1.7-0.4,2.6c-1.7,0.4,0,1.7,0,1.9c0,0-0.7,0.4-0.7,0.5c-0.9,0.9-0.5,3.6-0.5,4.3c0,0-0.3,0.4-0.4,0.7
					c-0.4,1.8-1,5.2-0.5,6.9c0.1,0.4,0.7,1.5,1.4,1.5c2.8,0.3,3.4-1.9,4.1-3c1.2-2,1.9-3.8,2.7-5.9c0.2-0.5,0.6-1.2,0.8-1.7
					c0.3-0.8,0.2-1.6,0.4-2.4c0.3-0.8,0.9-1.6,1.2-2.4c0.5-1.4,0.4-2.9,0.8-4.3c0.3-1.1,1.2-2.2,1.5-3.3c0.2-0.6,0.2-1.3,0.4-1.9
					c0.4-1.5,1-3.9,1.6-5c0.1-1.2-0.4-2.8,1.5-2.8c0.7,2.6-1,5.6,0.2,8.2c0,0.6-0.6,0.7-1.1,0.9c0,0.6,0.6,0.7,0.3,1.4
					c-1.7,1.5-0.7,3.7-0.9,6c-0.3,0.7-0.9,1.2-1.1,1.9c-0.3,0.9,0.9,1,0.7,1.9c-1.5,0.9-0.8,2.5-0.8,3.6c-0.1,1.6-1.2,3.2-0.1,4.3
					c-0.9,0.7-1.1,2.5-0.8,3.8c0.2,0.7,0.6,1.7,1.4,1.7c2.9,0.4,3.4-2,4.1-3.3c0.2-0.4,0.1-0.7,0.4-1.2c0.4-0.7,0.8-1.4,1.2-2.1
					c0.2-0.4,0.6-0.8,0.8-1.2c0.2-0.5-0.1-1.2,0-1.7c0.2-0.6,0.9-1.3,1.1-1.9c0.7-1.7,1.1-3.3,1.6-4.8c0.4-1.3,0.5-2.5,0.8-3.8
					c0.1-0.5,0.6-0.9,0.8-1.4c0.4-1.5,0.4-3.3,0.8-4.8c0.1-0.5,0.6-0.9,0.8-1.4c0.3-1.3-0.2-2.7,1.2-3.8c-0.4-1.1-0.2-2.4,1.5-2.6
					c0.4,4.7-1.1,10-1.1,14.6c-0.5,0.3-0.6,0.6-0.8,1.2c-0.4,1.5-0.4,3.5-0.1,4.8c-1.4,1.1-0.6,2.9-0.9,4.8
					c-0.2,1.7-1.1,3.1-0.8,4.3c0.1,0.7,1,1.5,1,2.2c1.1,0,2.5,0.1,2.6-0.7c0.6-0.4,0.7-1.1,1.5-1.4c-0.2-1.2,0.7-1.7,0.4-2.9
					c1.4-0.7,1.3-2.5,2.3-3.5c0-0.6,0-1.3,0-1.9c0.9-1.3,1.6-2.8,1.6-4.8c0.3-0.6,1-0.9,1.1-1.7c1.1-3.9,1.7-8.3,3.6-11.7
					c-0.4-1.2-0.4-2.8,0.1-3.8c0.3-0.6,0.8-1.4,1.5-1.4c2.1,0.4,0.9,1.4,0.7,2.4c1.1,3-0.6,7.2,0.1,9.4c-1,1.1-1.1,2.5-1.2,3.8
					c-0.1,1,0.1,1.9-0.1,2.9c-0.1,1-0.7,2.2-0.8,3.3c-0.2,1.4,0.1,2.9-0.1,4.3c-0.1,0.6-0.6,1-0.8,1.7c-0.2,0.7,0.1,1.5-0.4,2.2
					c0.4,0.3,0.6,0.7,1.1,1c0.2,0.5-0.5,1.4,0.7,1.2c0.6,0,1.2,0,1.8,0c1.4-0.8,1.4-2.2,1.9-3.6c0.7-1.9,1.9-3.4,2-5.5
					c0.5-0.4,0.5-1.1,1.1-1.4c0-0.6-0.6-0.7-0.3-1.4c1.7-3,2.4-6.6,2.8-10.5c2-1.6,0.3-5.7,2.4-7.1c1,5.9-0.8,10.7-1.5,15.6
					c-0.3,2,0,4.1-0.5,6c-0.2,0.7-0.6,1.3-0.8,1.9c-0.5,2.3-0.9,4.9,0.6,7.2c2.3,0.1,3.1-0.8,3.3-2.1c1.2-2.5,2.5-5.1,3.1-7.6
					c0.4-1.4,0.4-3.1,0.8-4.1c1-2.2,1.3-4.6,2-6.9c0.7-2.3,1.6-4.8,1.6-7.4c0.6-0.6,0.8-1.4,1.1-2.1c0-1.5-0.2-3.2,1.6-3.6
					c1.1,1.1,0.6,2.5,0.6,3.9c0,4.7-1.3,9.3-1.1,12.9c-1.4,1.7-0.8,3.6-0.9,5.3c0,0.5-0.8,0.9-0.8,1.2c0,0,0.6,0.4,0.7,0.7
					c0.3,1.4-0.6,2-0.8,2.9c-0.1,0.3,0.4,0.9,0.3,1.2c-0.1,0.9-0.8,2-0.8,2.9c0,0.5,0.3,1.2,0.3,1.7c0.2,1.8-0.7,3.7,1,5.3
					c1.2,0,1.6-0.3,2.2-0.7c1.2-0.7,1.8-1.9,2.3-2.8c0.2-0.4-0.2-0.8,0-1.2c0.1-0.2,0.6-0.2,0.7-0.7c0.1-0.4-0.1-0.8,0-1.2
					c2.1-1.9,2-5.3,3.5-7.6c0.3-3.6,2.3-6.1,2.4-9.8c1.5-1.2,1-3.3,1.6-5c0.2-0.7,0.9-1.4,1.1-2.1c0.5-1.8,0.4-3.5,1.2-4.5
					c0.2-0.3,0.8-1,1.5-0.9c1.2,1.1,0.7,3.1,0.6,4.8c0,2-0.3,3.8,0.2,5.3c-1.4,2.5-0.3,6.8-1.3,10c0,0.7,0.6,1,0.7,1.7
					c-0.3,0.7-1.1,1.2-1.5,1.9c1,2.5-0.4,5.2-0.2,7.7c0,0.4,0.6,0.8,0.7,1.2c0.3,1.1-0.2,1.8,0.3,2.2c0.5,0.4,0.5,1.1,0.7,1.5
					c1.7,0.2,2.2-0.4,3.3-0.6c0.6-1.6,1.4-3.3,1.9-4.5c0.1-0.3-0.1-0.7,0-1c0.1-0.2,0.6-0.2,0.7-0.7c0.3-0.9,0.1-1.9,0.4-2.9
					c0.1-0.4,0.6-1,0.8-1.4c0.9-2.2,1.1-4.6,1.3-6.9c0.3-0.6,1-0.9,1.1-1.7c-0.1-2.3,0.2-4.3,1.6-5.5c0.5,1.1-0.3,2.2-0.5,3.6
					c-0.2,1.4,0.2,3.1-0.1,4.6c-0.3,1.4-1.4,2.9-0.5,4.3c-0.5,0.9-0.7,2.2-0.8,3.6c-0.3,2.9-0.8,6.1,0.9,7.9
					c1.5,0.2,1.9-0.3,3.3-0.2c0.8,0.9,0.1,2.8,2.1,2.9c2.1,0.1,2.4-1.2,3-2.1c0.7-1,1.1-2.3,1.5-3.3c0.5-1.1,1.1-2.2,1.5-3.3
					c0.5-1.2,0.4-2.6,0.8-3.8c0.4-1.1,1.3-2,1.5-3.1c0.1-0.6,0-1.4,0-1.9c0.2-1.4,0.8-2.9,1.2-4.3c0.7-2.5,1-5.6,2-7.6
					c0.2-0.4-0.3-1.4,1.1-1.2c0.8,0.9,0,1.7,0,1.9c0,0.5,1.1,0.3,0.7,1c-1.2,0.8-0.7,2.2-0.8,3.3c-0.1,1-0.8,2.1-0.8,3.1
					c0,0.3,0.4,0.4,0.3,1c-0.1,1.3-0.7,2.5-0.8,3.8c0,0.4,0.3,0.5,0.3,0.7c0,0.5-0.4,0.5-0.4,1c-0.1,1.9-0.7,3.3-0.8,4.5
					c-0.3,2.3,0.2,3.9,1,5.3c3.7,0.4,3.4-1.9,3.8-3.7c1.4-1.5,1-3.5,1.6-4.8c0.5-1,0.9-2.1,1.2-3.1c0.4-1.6,0.4-3.5,0.8-4.8
					c0.2-0.4,0.7-0.8,0.8-1.2c0.2-0.7-0.1-1.2,0-1.9c0.2-1,0.9-2,1.2-3.1c0.5-1.9,0.8-3.6,0.9-5.5c0.9-1,1.2-3.6,1.2-4.5
					c0.5-1.1,0-2.9,1.9-3.1c0.6,2.2-0.6,4.5-0.9,6.9c0,0.3,0.3,0.5,0.3,0.7c0,0.3-0.4,0.5-0.4,0.7c-0.2,2.2-0.7,3.7-0.9,5.5
					c-0.1,0.6,0.1,1.3,0,1.9c-0.4,2.3-1.3,4.5-1.6,6.7c-0.1,1,0.2,2.1-0.1,3.1c-0.2,0.6-0.7,1.1-0.8,1.7c-0.1,0.6,0.3,1.2,0.3,1.2
					c0.1,0.2-0.4,0.3-0.4,0.2c0.1,1.1,0.1,1.8,0.3,2.2c0.4,1,0.2,1.4,1.8,1.7c2.5-0.4,1.8-2.2,2.3-3.8c0.2-0.6,0.6-1.1,0.8-1.7
					c0.2-0.6,0-1.7,1.1-1.7c0.4,3.6-2.5,6.5-0.2,9.4c1.6,0.2,1.8-0.5,2.9-0.6c1.3-5.1,3.2-10.3,3.7-15.3c0.4-0.3,0.6-0.6,0.8-0.9
					c0.6-1.5,0.8-3.5,1.2-5.3c0.5-1.8,0.2-4,1.9-4.8c1.5,1.1-0.2,1.7-0.4,2.9c0.6,1.4-0.5,2.7-0.8,4.3c-0.3,1.7-0.3,3.7-0.1,5.3
					c-0.6,0.4-0.6,0.7-0.8,1.2c-0.6,2.6-0.5,6.1,0.2,8.6c1.5,0.2,1.9-0.3,3.3-0.2c0.8-0.9,0.4-2.6,3-2.3c0.7,0.6,0.1,2,1,2.4
					c1.7,0.3,2.2-0.3,3.3-0.4c0.5-1.1,1.2-2.1,1.2-3.6c1.5-0.8,2.1-2.3,4.1-2.8c0.3-2.1,2.3-3.2,2.3-5.5c1.9-0.4,0.9-2.8,3-3
					c2.2,0.6,0.6,2.4,0.3,3.8c-0.3,1.3,0.2,2.7-0.8,3.6c-0.3,0.9,0.8,0.9,0.7,1.7c0.1,0.6-1.4,0.2-1.1,0.9c0.2,1.1-0.7,1.5-0.4,2.6
					c-1.1,1.1-3,5.4-0.1,6c2,0.1,2.3-1.3,3-2.1c0.1-0.1,0.7-0.3,0.7-0.5c0.1-0.3-0.2-0.7,0-1c0.1-0.1,0.6-0.3,0.7-0.5
					c0.9-1,1.1-1.9,2.3-2.3c1.1-0.4,0.3-1.2,0.8-1.7c0.9,0.1,1.5,0.5,2.2,0.1c-0.5-1,0.7-1.6,0.8-1.9c0.4-1.2-0.1-3.1,1.9-2.6
					c-0.9,1.4,0,3-0.1,4.6c-0.1,1.8-1.4,3.7,0.2,5c1.6,0.2,2-0.4,2.6-0.9c0.6-0.6,1.9-0.6,2.2-1.4c-0.3-1.2-0.5-2.4,1.2-2.9
					c0.3,0.7,1-0.3,1.5-0.2c1,0.7,0.5,2.4,1.4,3.2c0.9-0.1,1.5-0.4,2.2,0.1c0.6-0.5,1.2-1.3,1.9-2.1c0.6-0.8,0.4-2.2,1.9-1.9
					c1.1,1.4-0.9,2.9-0.8,4.3c0,0.8,0.7,1.3,1,1.9c4-0.2,3.6-3.6,4.5-5.9c1.5-0.6,1-2.6,2.3-3.3c0.4-1.5-0.2-3.6,2.6-3.3
					c1.2,1-1.2,2.2-0.1,3.1c1.6-0.2,1.6,0,2.9-0.2c0.6-1.6,1.2-3.3,2.3-4.5c-0.8-1.6,0-2.8,0.5-3.8c0.7-1.8,0.6-3.8,2.7-4.3
					c0,0.6,0.2,1.1,0.7,1.5c-0.2,0.6-1.4,0.5-1.1,1.4c0.2,1.1-0.7,1.5-0.4,2.6c0.1,0.8,1.4-0.6,1.5,0.3c-0.1,0.6-0.1,1.2,0.3,1.4
					c1.5,0.3,1.6,0.1,3.3,0.1c-0.1,0.7-0.1,1.3,1.1,1.2c1.7-0.1,2.8-0.7,3.3-1.6c0.9-0.8,2.4-1.1,2.6-2.3c1.6,0.3,1.3-0.7,1.9-1.2
					c1.1-0.2,1.9-1.1,3-1.6c1-0.5,1.8-1.4,3.3-0.9c1,0.4-1,1.3,0,1.7c1.3,0.2,1.4-0.5,2.6-0.4c0.4-0.4,0.5-1.6,1.5-0.9
					c0.8,0.9-0.5,1.1-0.4,2.2c-0.8,0.6-1.4,0.2-2.2,0.4c0.1,0.5-0.3,0.8-1.1,0.7c-0.9,0.3,0.6,0.7-0.4,1c-2-0.2-1.2,1.8-3,1.1
					c-0.7,0.4,0.2,0.4,0,1.2c-0.7,0.3-2.4-0.1-1.9,1.2c1.8,0.2,1.8-0.9,2.6-1.4c0.8-0.5,2-0.7,2.6-1.4c1.1-0.8,2-1.7,3.7-2.1
					c0.8,0,0.1-1.1,1.1-0.9c3.1-0.7,5.2-2.1,9.2-2.2c1.4-0.9,3.7-1.2,5.2-2c0.7,0.1,0.9,0.5,1.8,0.5c0-0.7,1.3-0.4,1.8-0.7
					c1.4-0.6,2.2-1.7,3.7-2.1c0.8-0.8,1.2-1.8,3-1.8c-0.5-1.9,3.4-2,2.3-3.5c-2.3-0.6-1.2,1.1-2.6,1.1c-0.8,0.5-1.4-0.1-2.6-0.1
					c-0.6,0.1-1.6,1-1.8,0.4c-1.6-0.3-1.2,0.8-2.6,0.7c-1.1-0.4-2,0-2.9,0.4c0-0.5-0.9-0.5-1.8-0.5c-0.9,0.5-1.9,1-3.3,1.1
					c-0.8,0.3-0.8,1.3-1.9,1.4c-1-1.2-3.3-0.5-4.8-0.1c-0.4,1,1,1,1.1,1.7c-0.1,0.3-1.5,0.9-0.4,1.2c0.3,1-1.1,0.7-0.8,1.7
					c-1.7-0.5-1.9,0.4-4-0.1c0.6-0.8,0.2-1.3,0.1-2.2c0.9-0.9,3.8-0.4,3-1.4c-0.5,0-0.7-1.2-1.1-0.5c-0.8,0.4-1-0.1-1.8,0
					c-1,0.1-1.5,1.2-2.9,0.9c-0.5,0.4-0.6,1.2-1.5,1.4c-0.5-0.8-1.8,0.3-2.2-0.3c0.5-0.2,0.2-0.7,0.4-1.2c0.2-0.5,0.8-0.8,0.8-1.2
					c0-1.2,0-1.5-1.4-2.2c-0.7-0.2-0.8,0.3-1.1,0.5c-0.2,0.1-1.1,0.1-1.5,0.2c-0.6,0.3-1.7,1-2.2,1.4c-0.4,0.4-0.4,0.9-0.8,1.4
					c-0.1,0.1-0.6,0.3-0.7,0.5c-1.1,1.2-1.7,2.3-2.6,3.3c-0.8,0.5-2.3,0.5-2.6,1.4c-0.7,0.2,0.9,1,0.3,1.9c-0.9,0.3-1,1.3-2.9,0.9
					c-0.1-3.5,2.4-6.4,1.7-9.6c1.2-0.3,1.6-2.3,0.4-2.9c-0.4,0-1,0-1.1-0.3c-2.1,0.3-2.7,1.5-3.7,2.5c0,1.1,1.7,2.4-0.4,2.9
					c-0.8-0.2-0.6-1.1-1.1-1.5c-0.9,0-1.8,0-1.8-0.5c0.1-1.2,0-2.4-1-2.9c-3.5-0.2-2.8,2.5-4.5,3.5c-0.9,0.6-1.6-0.2-2.9-0.1
					c-0.9,1.1-1.2,2.6-3,3c0.4-1.3-1.3-1.3-1.8-2c0-1.1-0.8-1.7-1.8-2.2c-1.8-0.3-2,0.6-3.3,0.6c-0.7-0.1-0.3-0.9-1.4-0.8
					c-0.6,0.3,0,1.4-1.1,1.4c-0.8-0.5-1.7-1-3.3-1c-1.6,0.3-1.6,1.7-3,2.1c0.7,1.2-1.4,2.2-1.9,3.6c-0.7,1.8-0.4,3.9-0.9,6
					c-0.1,0.6-1.3,0.4-1.1,1.2c0.1,0.3,0.5,0.5,0.3,1c-1.2,0.6-1,2-2.3,2.6c-1.4-2.7,0.4-5.7,0.6-8.4c0.1-1.6-0.5-3,0.5-4.3
					c1.2-0.7,3.2-0.7,4.1-1.6c-1.4-0.6-3,1-4.8,0.1c0.3-1.7-0.4-2.8-1.4-3.6c-1.1,0.3-1.9,0.2-2.6-0.3c0.1,0.8-1,0.4-1.5,0.7
					c-0.3,0.2-0.4,0.6-0.8,0.9c-1,1-2.1,2-2.6,3.1c-0.4,0.8-0.4,1.8-0.8,2.6c-0.2,0.3-0.5,0.6-0.8,0.9c-0.2,0.2-0.3,1.1-1.1,0.9
					c0.2-3.8,1-7.1,2.1-10.3c-1.2-0.9-4.1-1.5-5.5-0.4c-0.9-0.5-1.5-1.1-3.3-1c-3.2,1.3-2.2,4-2.7,6.7c-0.1,0.4-0.6,0.9-0.8,1.4
					c-0.3,1.1-0.1,2.4-0.5,3.6c-0.2,0.5-0.7,0.9-0.8,1.4c-0.2,0.9,0.1,2-0.1,2.9c-1.3,1.3-0.5,4-2.3,5c0.4-2-0.2-3.1,0.8-4.5
					c-0.4-1.2,0.1-3.6,0.8-4.8c-0.2-3.4,0-6.9,0.6-10.1c-0.9-0.4-1.5-0.9-3.3-0.8c-1.1,0.4-1.7,1.3-2.2,2.1c-0.3,0.5-0.2,1-0.4,1.4
					c-0.3,0.5-1.3,0.5-1.1,1.2c0.8,0.9,0.4,3.1-0.8,3.3c-0.6-1.4,0.5-3.5,0.5-5.3c-0.5-0.4-2.2-0.1-2.2-0.8c-2.2,0.1-1.8,2-3.7,2.3
					c-0.3-1.6,0.5-5,0.5-6.5c-1.1-0.5-0.2-0.9-0.7-1.9c-1.2-0.4-2-1-4-0.8c-0.9,0.7-1.8,1.9-2.3,3.1c-0.1,0.4,0.1,1,0,1.4
					c-0.1,0.7-0.7,1.3-0.8,1.9c-0.5,2.5-0.5,4.3-0.5,5.5c-0.8,0.1-0.9,0.8-1.1,1.4c-0.5,1.7-0.5,4-0.1,5.3c-0.4,0.9-1.2,1.5-1.5,2.4
					c0,1,0,1.9-0.1,2.9c0.1,0.9-1.1,0.9-1.1,1.7c-0.1,0.7,1.5,1.4,0,1.7c-1.4-0.1-0.3-0.9-0.3-1.4c0-0.6-0.4-1.3-0.3-1.9
					c0.1-1,0.7-2,0.8-3.1c0.1-0.9-0.1-1.8,0.1-2.6c0.2-0.7,0.7-1.2,0.8-1.9c0.2-2-0.4-3.8-1.3-5.3c-1.6-0.1-2.5-0.5-4.4-0.3
					c-0.5,1-1.2,1.9-1.9,2.8c-0.3,4.7-2.5,8-2.5,12.9c-1.5,1-0.8,3.5-1.9,4.8c0.3,0.5,0.6,0.9,0.7,1.5c-0.2,0.6-1.5,0.6-1.5,1.4
					c0,1.1,0.1,2.4-1.5,2.4c-0.3-1.7,1-3,0.1-4.3c1.3-1.5,0-4.1,1.6-5.7c-0.2-0.6-0.5-1.1-0.3-1.9c0.6-2,1.6-4.4,2-6.2
					c0.1-0.6-0.1-1.2,0-1.9c0.1-0.9,0.7-1.8,0.8-2.6c0.1-0.4-0.3-0.8-0.3-1.2c0.1-1.9,0.8-3.6-0.6-4.8c-0.1-0.1-0.6,0-0.7,0
					c-0.4-0.2-0.7-1-1.4-0.8c-1.6,0.5-1.8,1.4-2.3,2.3c-0.1,0.3-0.7,0.7-0.8,0.9c-0.1,0.4,0.4,0.8,0.3,1c-0.1,0.3-0.7,0.4-0.7,0.7
					c-0.1,0.5,1.1,1.5-0.4,1.7c-1-1.9,1.4-5.2-1.3-6.8c-1.3,0.2-1.9-0.5-2.6-0.1c-2.3,1.1-1.4,3.4-2,5.5c-0.1,0.5-0.7,0.9-0.8,1.4
					c-0.2,1.2,0.2,2.3-0.1,3.4c-0.2,0.6-1,1.1-0.8,1.7c-0.2,0.8,0.1,1.3,0.3,1.9c-0.5,0.4-1,0.9-1.1,1.7c-0.8,5.3-2.7,9.7-3.7,14.8
					c-1.3-0.2,0,1.4-1.5,1.2c-1-10.3,2.9-21.3,1.5-32.4c-1.2-0.6-2.3-1.2-4.7-1.1c-2,0.7-2.8,2.4-3.4,3.8c-0.5,1.1-0.4,2.1-0.8,3.3
					c-0.8,2.7-2.5,5.4-2,7.9c-0.2,0.5-0.8,0.6-0.8,1.2c-0.2,0.6,0.7,0.5,0.3,1.2c-0.3,0.5-1.1,0.7-1.1,1.4c-0.2,2.3-1.6,3.8-1.6,6.2
					c-1.3,1.8-2.5,4.7-2,6.9c-1.6-0.4,0,1.4-1.1,1.4c-1.3-0.5-0.7-1.7-0.7-2.2c0-1,0.4-1.7,0.4-2.6c0-0.5-0.3-1.2-0.3-1.7
					c0-2.9,1.2-5.9,1.3-9.1c0-0.4-0.4-0.8-0.3-1.2c0.1-0.7,0.6-1.4,0.8-2.1c0.1-0.7-0.1-1.5,0.1-2.2c0.1-0.6,0.7-1.2,0.8-1.9
					c0.1-0.5-0.3-0.7-0.3-1c0-0.4,0.4-0.9,0.4-1.2c0.1-2.3,0.7-4.2,0.5-6c-0.1-0.5-0.6-1-0.7-1.5c-0.2-0.7,0.2-1.3-0.3-1.9
					c-1.2-0.4-2.5-0.8-4.4-0.8c-3.4,2.2-3.8,6.5-4.3,10.7c-1,0.9-0.5,2.1-0.8,3.3c-0.1,0.4-0.7,1-0.8,1.4c-0.1,0.7,0,1.6-0.1,2.4
					c-0.2,0.5-0.8,0.6-0.8,1.2c-0.3,1.1,0,2.6-1.5,2.8c-0.6-0.9,0.3-1.9,0.4-2.9c0.2-1.1-0.2-2.3,0.1-3.4c0.1-0.7,0.7-1.2,0.8-1.9
					c0.1-0.6-0.3-1.2-0.3-1.7c0-0.3,0.4-0.3,0.4-0.7c0-0.9,0-1.6,0.1-2.6c0.2-2.9,1.2-5.5-0.5-7.7c-1.4-0.3-1.4-0.1-2.9-0.3
					c-3.1,1.5-2.8,5.2-3.5,8.3c-0.2,0.8-0.7,1.4-0.8,2.1c-0.1,0.6,0.1,1.1,0,1.7c-0.5,2.1-2.3,4-0.9,5.7c-1.5,0.2-0.7,2-1.9,2.4
					c-0.4,0.7,0.7,2.5-0.8,2.4c-1.4-0.6-0.3-1.7,0.1-2.4c-0.4-1.4,0.3-2.9,0.5-4.6c0.1-1,0-2,0.1-3.1c0.1-1.3,0.7-2.7,0.8-4.1
					c0-0.5-0.3-1.1-0.3-1.7c0-0.6,0.4-1.3,0.4-1.9c0-1.1-1-2-0.3-2.9c-0.7-0.7-1.4-1.3-2.1-2c-1.4,0.2-1.7-0.3-2.9-0.3
					c-1.2,0.3-1.8,1.2-2.2,1.9c-0.6,0.9-0.4,1-0.8,2.1c-0.1,0.4-0.7,0.8-0.8,1.2c-0.2,0.8-0.4,2.3-0.4,2.6c0,0.3,0.4,0.3,0.3,0.7
					c-0.1,0.3-0.6,0.6-0.8,0.9c-1,2.6-1.2,5.2-1.7,7.6c0.1,0.7-0.8,0.7-0.8,1.4c-0.3,0.8,0.5,0.9,0.3,1.7c-0.7,0.4-0.8,1.2-1.5,1.6
					c0,2.5-1.8,4.3-0.9,6.7c-1,0-0.7,1-1.5,1.2c-0.8-5.7,1.7-11.8,2.3-18c0-0.4-0.4-0.8-0.3-1.2c0.1-2.2,0.5-4.5,0.5-7
					c-1.1-0.8-3.7-1.4-5.8-0.9c-2.2,2.6-2.1,6.7-3.5,9.8c0.2,3.3-2.3,6-1.7,8.8c-1.8,1.1-1.4,3.7-2.7,5.2c0.1,1.1-0.1,2-0.4,2.4
					c-0.6,0.6-0.2,1.8-1.5,1.9c0-2.2-0.1-4.4,0.2-6.7c0.5-4.7,2-8.7,2.5-12.9c0.2-2,0.1-4,0.1-6c0-1.2,1-2.4-0.6-3.4
					c-1.6-0.3-2.8-0.2-4.4-0.1c-0.6,0.3-0.4,0.7-0.8,1.2c-0.3,0.4-0.9,0.8-1.1,1.2c-0.2,0.4,0.2,0.9,0,1.4c-0.1,0.4-0.6,0.8-0.8,1.2
					c-0.1,0.5-0.2,1-0.4,1.4c-0.5,1.5-0.6,2.8-0.5,4.1c0,0.5-1,0.3-0.8,0.9c-0.2,2.6-1.5,4.5-1.6,7.2c-0.9,0.9-0.8,2-1.2,3.1
					c-0.2,0.6-0.6,1.3-0.8,1.9c-0.4,1.2-0.5,2.6-1.6,3.6c0.1,0.8,0.8,1.6-0.4,1.9c-1.6-0.5-1.1-1.6-1-2.4c0-0.8,0.7-1.8,0.8-2.6
					c0.1-0.5-0.4-0.5-0.3-1c0-0.3,0.3-0.5,0.4-0.9c0.3-2,0.2-4.1,0.5-6.2c0.1-0.9,0.7-1.3,0.4-1.9c-0.1-0.2,0.4-0.4,0.4-0.5
					c0.2-1.4,0-2.6,0.1-3.8c1.3-1.4,0.9-3.3,1.2-5.3c0.4-2.6,1.7-5.8,0.2-8.4c-1.7-0.4-2.5-0.5-4.4-0.3c-0.4,0.7-1.2,1.1-1.5,1.9
					c-1.2,1.9-1.3,4.5-2.4,6.4c-0.4,0.9,0.9,0.7,0.7,1.5c-0.6,0.3-1.4,0.5-1.5,1.2c0.3,0.5,0.6,0.9,0.7,1.5c-0.4,0.4-1,0.8-1.5,1.2
					c0.3,0.6,0.4,1.3,0.3,2.2c-0.7,0.1-0.3,0.8-0.4,1c-0.3,0.6-0.6,0.7-0.8,1.2c-0.3,1.1-0.4,2.3-0.1,3.4c-0.5,0.5-1.4,0.7-1.5,1.4
					c0.8,0,0.1,1,0.3,1.4c-1.2,0.7-0.7,2.5-1.2,3.6c-0.4,0.2-0.7,0.5-1.1,0.7c-0.3,1.7-0.6,3.3-1.9,4.3c-0.2,0.5,1.1,1.1-0.4,1
					c-0.2-1.7,0.1-3.7,0.1-4.8c0-0.5-0.4-0.8-0.3-1.2c0.1-0.8,0.7-1.6,0.8-2.4c0.3-1.8,0.3-4.1,0.5-5.3c0.2-1.2,0.1-2.9,0.1-3.1
					c0-0.4,0-0.8,0-1.2c0.4-4,2.4-8.8,1.4-12.2c-0.1-0.2,0.4-0.2,0.4-0.2c0.2-1.7-0.6-2.8-1-4.1c-0.8-0.5-2.3-0.6-4-0.6
					c-2,0.5-2.4,1.8-3,3c0,0.1-0.7,0.3-0.7,0.5c-0.2,0.4,0.1,1,0,1.4c-0.1,0.5-0.6,0.7-0.8,1.2c-0.6,1.9-1.2,3.8-1.6,5.5
					c-0.3,1.1-0.1,2.2-0.4,3.1c-0.1,0.4-0.6,1-0.8,1.4c-0.1,0.5,0.1,1.2,0,1.7c-0.3,1.4-1.3,2.7-1.6,4c-0.1,0.7,0.1,1.3,0,1.9
					c-1,1.3-1.1,3.4-1.6,4.8c-0.2,0.4-0.1,1.5-1.1,1.4c-1.7-0.5,0.5-1.1,0.1-2.2c0.3-8.1,4.8-15.7,1.7-23.2c-1-0.2-2.2-0.3-3.3-0.6
					c-1.1,0.4-1.4,0.8-1.9,1.4c-0.6,0.8-0.4,1.5-0.8,2.4c-0.3,0.6-0.9,1.2-1.1,1.9c-0.9,3-0.4,6.4-2,8.8c-0.3,0.9,0.8,0.9,0.7,1.7
					c-0.5,0.4-1,0.9-1.1,1.7c0,4.2-2.3,6.9-2.5,11c-1.4,1.3-1.4,3.6-2.3,5.2c-1-0.1-0.6-0.7-0.7-1.2c-0.2-0.9-0.1-2.5,0.1-2.9
					c0.1-0.2-0.4-0.3-0.4-0.2c0-2,0.3-3.4,0.1-4.8c-0.2-1.5,0.4-3.1,0.1-4.6c0.5-0.8,1.2-1.9,1.2-3.3c0-0.4-0.4-1-0.3-1.4
					c0.1-0.8,0.7-1.5,0.8-2.4c0.2-1.5,0.5-3.8,0.5-4.8c0-0.5-0.4-1-0.3-1.4c0.5-3.6,0.4-8.8-6-7.4c-2.1,2.1-2.2,4.9-2.7,7.6
					c-0.2,1-0.7,1.9-0.8,2.9c-0.1,0.7,0.1,1.5-0.1,2.2c-0.2,0.7-0.7,1.2-0.8,1.9c-0.2,0.9,0.1,1.8-0.1,2.6c-0.3,2-1.2,3.9-1.6,6
					c-0.1,0.6,0.1,1.3,0,1.9c-0.2,1-0.9,2.1-1.2,3.1c-0.4,1.5-0.4,3.2-0.8,4.5c-0.2,0.8-0.9,1.6-1.2,2.4c-0.3,0.9,0,2-1.2,2.6
					c-0.9-0.8-0.3-1.7-0.3-2.6c0-3.9,1.1-6.8,1.3-10.1c0.1-1-0.3-1.9-0.3-2.9c0-1.3,0.7-2.5,0.8-3.8c0.3-2.1,0.2-3.8,0.5-5.5
					c0.1-0.6,0.7-1.3,0.8-1.9c0.1-0.4-0.4-0.7-0.3-1.2c0.2-3.4,1-7-1.2-9.9c-1.5-0.5-2.4,0.1-4-0.3c-0.8,0.8-1.9,1.8-2.3,3.1
					c-0.2,0.5,0,1.2,0,1.9c-0.5,3.5-1.9,8.4-1.4,11.5c-1.1,1.5-0.9,3.2-1.2,5c-0.3,1.9-1.2,3.7-1.6,5.5c-0.3,1.2-0.2,2.1-0.4,2.9
					c-0.2,0.5-0.3,0.9-0.4,1.4c-0.2,0.9-0.1,2-1.2,2.6c-0.1-3-0.4-6.6-0.1-10.1c0.1-1.1,0.5-2.1,0.4-3.1c-0.1-0.7-0.4-1.3-0.3-1.9
					c0.1-1.2,1-2.3,1.2-3.6c0.2-1.1,0-2.5,0.1-3.6c0.3-3.3,0.9-6,0.6-9.1c-0.1-1.2-0.4-2.3-1.4-3.2c-1.9,0-2.4-0.4-4-0.1
					c-1.5,1.6-2,5-1.6,7.2c-0.9,0.7-0.3,1.5-0.4,2.4c-0.1,0.7-0.4,1.3-0.4,1.7c0,0.3,0.4,0.3,0.3,0.7c-0.2,2-1,4-1.3,6.2
					c0,0.4,0.4,0.8,0.3,1.2c-0.2,3.5-1.9,6.4-1.3,9.3c-2.1,1.8-1.1,5.8-3.1,7.6c-0.6-0.9-0.2-1.9-0.3-2.9c-0.1-0.8-0.4-1.6-0.3-2.4
					c0.4-4.4,0.3-9.6,1.1-14.4c0.1-0.8,0.7-1.7,0.8-2.6c0.1-0.4-0.3-1-0.3-1.4c0-0.4,0.4-0.9,0.4-1.4c0-0.4-0.3-0.8-0.3-1.2
					c0-0.4,0.4-0.7,0.4-1.2c0-0.4-0.4-1-0.3-1.2c0.1-0.4,0.7-0.6,0.8-1.2c0.4-3.5-0.1-7.5-2.3-8.9c-1.4,0.2-2.3-0.4-2.9-0.1
					c-2.6,1.1-2,4.5-3.1,6.6c-0.4,0.9,0.9,0.7,0.7,1.5c-1.5,1.3-0.8,3.6-0.8,4.8c0,1.1-0.8,2.1-0.8,3.1c-0.4,1,0.7,1,0.7,1.7
					c-2,1.4-1.5,3.9-2,6.2c-0.1,0.5-0.6,0.9-0.8,1.4c-0.2,0.6,0.1,1.3,0,1.9c-0.2,0.6-0.6,1.1-0.8,1.7c-0.1,0.5,0.7,1.7-0.8,1.9
					c-0.5-3.1-0.9-6.3-0.9-9.6c0.1-3.5,1.1-7.1,1-10.5c-0.1-2.1-0.4-4.4-2-6.3c-1.4,0.1-1.7-0.3-2.9-0.3c-1.3,1.3-0.8,2.7-0.8,4.3
					c0,1.3-0.2,2.9-0.5,4.1c-0.1,0.6-0.7,1.1-0.8,1.7c-0.1,0.4,0.3,0.9,0.3,1c0,1.1-1,2.5-0.1,3.6c0.1,0.6-1.4,0.2-1.1,0.9
					c1,1.1,0.8,2.8-0.8,3.3c-0.4-1.5,0.4-3,0.5-4.3c0-0.5-0.4-0.8-0.3-1.2c0.1-0.7,0.7-1.4,0.8-2.1c0.2-1.1-0.4-2.4,0.4-3.3
					c-1-0.6,0-2.2,0.1-3.4c0-0.7-0.3-1.4-0.3-2.2c0.1-1.9,1.8-6.1-1.7-6.8c-0.8-0.1-1.2,0.3-1.8,0c-1.6,0.4-0.4,2.6-2.3,2.8
					c-0.4-1.4,0.1-2.7-0.3-4.6c-1.1-0.7-2-1.6-4.4-1.5c-2.5,0.4-1.8,2.5-3.3,1.4c-0.9-0.7-2.3,0.2-3.3-0.1c-1.1-0.1-0.6-1-1.8-1
					c-1.2,0-2.4-0.1-3.7-0.1c-2.4,4.5-2,10.7-2.6,16.3c-0.4,3.7-2.2,7.1-1.4,10.3c-0.3,0.6-1,0.9-1.1,1.7c-0.4,1.2,0.4,1.7-0.8,2.1
					c-0.6-2.3,0.1-5.4-0.5-7.7c1.9-2,0.6-5.2,2.4-7.4c-0.6-2.3,0.6-5.6,0.9-8.6c0.2-1.7-0.3-3.4,0.8-4.1c-0.7-2.4,0.7-5.3,1.3-7.7
					c-0.7-0.8-1-1.9-1.4-2.9c-1.1-0.2-1.6-0.8-3.3-0.6c-0.8,0.5-1.8,1.3-2.3,2.3c-0.5,1.1,0.2,2.6-1.2,3.3c-2.2,0.4-1.5-1.1-3.3-1
					c-0.6-0.4-2.1-0.2-3.3-0.3c-1.7,0.7-2,2.3-3,3.5c-1.2-0.3-0.5-1.9-1.4-2.4c-2.3-0.5-3.2,0-4.8,0.6c-0.8-0.2-1.6-0.7-2.2-0.3
					c-0.2,1.1-1.2,2-1.5,3.1c-0.3,1.2-0.3,2.6-0.5,3.8c-0.7,6.3-0.2,13.6-1.9,19.6c0,1,1.8,0.9,1.8,2c-1.3,0.8-0.7,2.8-1.2,4.1
					c-0.5-0.3-0.9-0.3-1.5,0c-0.2,1.8-0.2,3.8-1.2,5c-1.3-3.5,0.7-6.9-0.9-9.6c0.2-0.5,0.9-0.7,0.8-1.4c0.2-9.1,0.9-15.6,0.6-22.8
					c-0.6-0.7-1.5-1.1-1.8-2c0.3-1.9,0.4-4.8,0.2-6.7c-0.2-2.3,1.2-5.2-1.3-6.5c-1.6-0.2-1.5,0.7-2.9,0.6c-0.9,1.5-1.7,3-2,5
					c-0.1,1.1-0.4,2.9-0.4,3.4c0,0.1,0.4,0.6,0.3,1c-0.1,1.3-0.7,2.8-0.8,4.1c-0.3,3.2-0.5,5.3-2,7.4c0.5,0.2,0.5,0.8,0.7,1.2
					c-0.5,0.4-0.9,1-1.1,1.7c0.6,0.9-0.3,1.6-0.8,2.4c0.3,0.6,0.6,1.4-0.4,1.7c-0.4,0.9,1.1,0.7,0.7,1.7c-1.3-0.1-1.1,0.8-1.5,1.4
					c0.3,2.5-0.4,3.2-0.1,5.5c-0.6,0.7-1.1,1.7-0.4,2.6c-0.7,0.1-1,0.6-1.1,1.2c0,2.8-1.2,5.9-0.9,8.1c-1.2,1.1-1.6,2.6-1.2,4.3
					c-1.2,0.1-0.3,1.6-2.2,1.1c0.4-4.8,2-8.6,1.4-13.2c0.4-0.4,1.1-0.6,1.1-1.2c-0.4-2.2,0.6-4.5,0.9-6.9c0.1-0.8-0.1-1.8,0.1-2.6
					c0.1-0.6,0.7-1.1,0.8-1.7c0.2-1-0.2-2.1,0.1-3.1c0.1-0.5,0.7-1.1,0.8-1.7c0.1-0.5-0.3-1-0.3-1.4c0.1-5,1.9-10.4-0.7-14.9
					c0-1.3,0.4-2.9-0.6-3.6c-2.5-0.4-3,0.5-4.8,0.6c0.5-3,0.1-5.4-4.6-5.2c-5.9,2.8-2.5,11.1-4.4,15.7c-0.3,1,1.2,0.9,0.7,1.9
					c-1,0.1-0.4,1.4-1.5,1.4c-0.3-1.9,0.6-3.7,0.1-5.3c-0.3-1-1.4-1.5-1.8-2.4c-0.1-4,0.7-7.5,0.3-10.6c-1-0.5-3.4-0.3-4.4-0.1
					C410.1,54,410.7,58.4,410.1,63z M820.7,84.5c-0.1-0.5,0.1-0.8,0.4-1c0.3-0.2,0.7,0,1.1-0.2c0.4-0.2,1-0.7,1.5-0.9
					c0.2-0.1,0.6,0.1,0.7,0c0.8-0.4,1.4-0.6,1.9-1.2c2.2-0.2,3.1-1.3,5.2-1.6c-0.3-0.7-1-2.5,1.2-2.1c0.3,0.9-1.4,1-0.4,1.7
					c1.2,0.2,0.5-0.8,1.1-0.9c1.1-0.1,1-1,2.6-0.7c-0.2,0.9-1.4,1.1-1.5,2.1c-2,0.5-3.9,1.2-5.2,2.3c-2.5,0.2-3.7,1.4-6.3,1.5
					c-0.5,0.2-1.2,0.3-1.1,0.9C821.4,84.5,821.1,84.5,820.7,84.5z M442.8,115.2c-0.4,0-0.3-0.3-0.4-0.5c-1-0.7,0.4-1,0.4-1.7
					c-1-3.5-0.9-7.7-0.4-11.8c0.4-3.3,0-7,0.6-9.8c0.1-0.5,0.2-1.2,0.4-1.7c0.1-0.2,0.2-1.1,1.1-0.9c0.5,7.1-1.2,14-0.5,20.4
					c0.1,0.9,0.4,1.6,0.7,2.4C444.2,113,443.8,114.3,442.8,115.2z M448.4,111.5c0.9-2.6,2.8-4.6,3.1-7.6c1.2,0.1,1,1.1,1.1,1.7
					c0.3,2-0.9,4.4-1.6,5.7c-0.7,0-1.2,0.1-1.5,0.4C448.9,111.8,448.9,111.6,448.4,111.5z M389.9,110.3c-1.5-1-1.3-4.1-0.2-5.3
					c0.1-0.9,0-1.6-0.3-2.2c1.4-1.7,1.2-4.8,2-7.9c0.8-3.2,2.2-6.6,3.5-9.8c0.6-1.3,0.8-2.4,1.2-3.8c0.1-0.2-0.4-1.2,0.8-0.9
					c-0.2,1.7,0.1,3.4-0.1,5c-0.1,0.6-0.6,1-0.8,1.7c-0.2,0.6,0.1,1.3,0,1.9c-0.1,0.6-0.6,1.1-0.8,1.7c-0.4,1.2-0.5,2.4-0.8,3.8
					c-0.5,1.9-0.6,4.7-1.3,6.7c-0.1,0.4-0.6,0.6-0.8,0.9c-0.4,1.1-0.2,2.2-1.2,3.1c-0.5,1.1,1,1,0.7,1.9
					C390.3,107.7,391.2,109.7,389.9,110.3z M410.5,108.7c-0.4,0-0.7,0-1.1,0c-0.7-3.2,0.1-6,0.6-9.1c0.1-0.6-0.1-1.3,0-1.9
					c0.3-1.2,1.1-2.3,1.5-3.6c0.4-1.2,0.2-2.5,1.2-3.6c1.2-0.2,0.9,0.8,1.1,1c0.6,0.8-0.5,3,0.3,4.6c0,0.7-0.5,1.1-0.8,1.7
					c-0.3,0.7,1,0.5,0.7,1.2c-1.3,0.5-0.5,2.6-1.2,3.6c-0.3,0.9,0.9,0.9,1.1,1.5c-0.1,0.8,0.2,2-0.4,2.4c-0.7-0.2-0.1-1.2-1.4-1
					C411.3,106.3,410.5,107.3,410.5,108.7z M474.4,109.5c-1.5-0.1-1.7-2.9-0.7-3.1c1.3-0.3,0.2,0.8,1.1,0.7
					C474.4,108.2,475.2,108.6,474.4,109.5z M356.7,106.4c0.2-0.2,0.4-0.4,0.4-0.7c0.3,0.1,0.6,0.3,1.1,0.3
					C358.4,106.7,357.3,106.8,356.7,106.4z M325.4,102.2c-0.2,0-0.5,0-0.7,0c0.1-0.2-0.1-0.2-0.4-0.3c0-0.2,0-0.3,0-0.5
					c0.3,0.1,0.3-0.1,0.4-0.2c0.2,0,0.5,0,0.7,0c-0.1,0.2,0.1,0.2,0.4,0.2c0,0.2,0,0.3,0,0.5C325.5,102,325.4,102.1,325.4,102.2z
					 M422.6,104.2c-0.4,0-0.7,0-1.1,0c0.4-1.1,0.3-2.5,1.5-3.1c-0.2-0.5-0.7-1.2,0-1.7C424,100.7,423.2,103,422.6,104.2z
					 M427.4,103.6c-0.6,0.1-0.6-0.2-1.1-0.3c0-0.6,0.6-0.7,0.8-1.2C427.9,102.2,427.2,103.1,427.4,103.6z M453,102.8
					c0-0.3,0-0.6,0-1c1,0,1.6,0.1,1.4,0.8C454.2,102.7,453.7,102.8,453,102.8z M480.1,103.2c-0.5-0.5-1.1-1.7,0.4-1.7
					C480.7,102.3,479.8,102.4,480.1,103.2z M490.3,103.2c-0.2-1.9-0.8-5.3,0.5-7.2c-0.2-1.8-0.4-4,0.2-6.2c0.1-0.5-0.3-1.7,1.1-1.4
					c0.6,0.4-0.3,0.8-0.4,1.2c-0.8,3.5,0.3,8.8-0.3,12.7C490.7,102.3,490.7,102.9,490.3,103.2z M311.6,98.5c-0.2,0-0.5,0-0.7,0
					c-1.4,0.1-0.3-1,0-1.2c0-1.2,0.1-2.5,0.5-3.6c0.8-2.6,2.3-5.4,3.1-8.3c0.7-2.4,0.9-4.9,2.4-7.1c0.2-2.8,1.5-4.8,2-7.4
					c1.3,1.4,0.7,3.1,0.2,4.8c-0.1,0.6-0.2,1.1-0.4,1.7c-0.1,0.5-0.6,0.9-0.8,1.4c-0.6,2.4-0.4,5-2,6.4c0.6,0.8-0.1,0.9,0,1.9
					c-1.6,3-2.1,6.7-4.3,9.3C311.6,97.4,312.3,97.7,311.6,98.5z M315.6,98.2c-1.4,0.1-0.8-1.6,0.4-1.2
					C316.1,97.5,315.9,97.9,315.6,98.2z M468.1,101.2c-0.5-0.1-0.1-0.7-0.7-0.7c-0.3-1.8,0.3-3.9,0.5-5.7c0.1-0.6-0.3-1.2-0.3-1.9
					c0.1-2.8,0.6-6.7,1-10.1c0.1-0.8,0.2-1.9,0.4-2.6c0.2-0.5,0.5-1.5,1.5-1.6c0.6,3,1,8.2,0.4,12.3c-0.1,0.5-0.4,0.9-0.4,1.4
					c0,0.8,0.6,1.4,0.7,2.2c0.2,1.7-0.6,3.2-0.5,4.8c-1.1,0.1-0.7-0.7-1.8-0.5C468.7,99.5,468.5,100.5,468.1,101.2z M330,95.2
					c-1.3,0.1-1.6-0.7-1.1-1C329.8,94.1,330.1,94.5,330,95.2z M484.6,98.3c-0.4,0-0.6-0.1-0.7-0.3c-0.5-0.6,0.5-1.1,0.4-1.7
					c0-0.3-0.7-0.6-0.7-1.5c0-1.2,0.6-2.5,0.8-3.8c0.1-0.7-0.1-1.4,0.1-2.2c0.1-0.5,0.7-1.1,0.8-1.7c0.1-0.4-0.3-0.9-0.3-1.2
					c0-1,0.7-1.9,0.8-2.9c0.8-5.7-0.3-11.3,3.7-14.6c2.2,0.2,0.8,1.9,0.7,3.1c-0.2,2.2,0,4.9-0.9,6.5c-0.7,0.5,0.1,0.5,0.3,1
					c-0.8,1.1-0.8,2.2-0.4,3.3c-0.9,0.9-0.5,2.1-0.8,3.3c-0.1,0.4-0.6,0.8-0.8,1.2c-0.4,1.3-0.4,2.7-0.8,4.1c-0.6,1.7-1.2,3.5-2,5
					C485.1,96.8,485.1,97.6,484.6,98.3z M330,93.5c-0.4,0-0.7,0-1.1,0c-0.5-1,0.4-2,0.4-3.1c0-1.1-0.4-2-0.3-3.1
					c0.2-2.1,1.3-4.1,1.6-6c1.4,1.5,0.6,5.2-0.5,6.5C331.1,89.5,329.7,91.3,330,93.5z M428.7,94.7c-1.2-0.1-0.8-1.6,0.4-1.4
					C429.4,94,428.7,94.2,428.7,94.7z M420.7,94.5c-0.7,0.1-1.1-1.1-0.3-1.2C421.7,93.1,421,94.4,420.7,94.5z M749.7,100.3
					c-1.1-0.4-0.7-1.9,0.8-1.9C749.7,99.2,750.3,99.4,749.7,100.3z M503.7,93.9c-1.5,0.2-1.5-1.7,0-1.4
					C503.4,93.3,504.4,93.5,503.7,93.9z M344.4,88.8c-0.9-0.4-0.1-1.2,0-1.9c0.2-0.7-0.3-2,1.1-1.9c0,1.5-0.5,2-0.1,3.4
					C344.9,88.3,344.5,88.5,344.4,88.8z M410.6,89.5c-0.4,0-0.7,0-1.1,0c0-0.7,0.2-1.3,1.5-1.2C411.2,89,410.4,88.9,410.6,89.5z
					 M531.2,90.5c-1.7-0.3-1.2-3-0.3-3.6C533.8,87.8,529.9,89.1,531.2,90.5z M689.5,93.7c-1.3,0.1-1.3-0.9-0.7-1.2
					C689.6,92.7,690.3,93.3,689.5,93.7z M758.3,94.5c-0.6-0.4,0.5-1.1,0.8-1.7C760.5,92.8,760,95.1,758.3,94.5z M689.9,92.1
					c-1.4-0.1-0.6-3-0.3-3.6C690.8,89.6,690,90.7,689.9,92.1z M414,83.8c-0.3-0.1-0.6-0.2-0.7-0.5c0-2.1,0-4.3,1.2-5.5
					c-0.5-1.2-0.9-2.3,0.4-3.1c1.6,0,0.3,1.2,0.3,1.7c0,0.4,0.4,0.5,0.3,1C415.5,79.4,414.3,81.8,414,83.8z M781.8,92.2
					c0.1-0.8,0.3-1.6,1.9-1.4c0,0.4,0,0.8,0,1.2C782.6,91.8,782.6,92.3,781.8,92.2z M531.7,86c-0.6,0.1-0.6-0.2-1.1-0.3
					c-0.3-0.6,0.3-1.2,0.4-1.7c0.1-0.4-0.6-0.6-0.3-1c0,0,0.7-0.2,0.7-0.2c0.1-0.6-0.4-1.4-0.3-2.2c0.1-0.8,0.4-1.9,0.8-2.9
					c1.3-0.2,0.6,1.1,0.3,1.2c-0.1,0.7,0.8,0.8,0.7,1.5C531.4,81.9,532.6,84.5,531.7,86z M459.7,83.7c-1.6,0-0.3-1.3-0.3-1.7
					C460.2,82.2,459.5,83.2,459.7,83.7z M751.9,86.4c-0.4,0-0.7,0-1.1,0c-0.7-0.6-0.3-2,1.1-1.9C751.9,85.1,751.9,85.8,751.9,86.4z
					 M798.7,87.3c0.7-0.1-0.2-1.4,1.1-1.2C799.9,86.8,799.8,87.4,798.7,87.3z M494.2,79.8c-0.7-0.5-0.7-1.1-0.3-1.7
					C495.7,78.1,494.7,79.4,494.2,79.8z M444.5,78.1c-0.7-0.8,0.2-1.3-0.3-2.4c1.1,0.2,0.8,1.2,1.4,1.7
					C445.1,77.5,444.7,77.7,444.5,78.1z M747.9,84.6c-0.5-2,1.1-5.2,4.1-4.7c0,1.2-0.1,2.4-0.1,3.6C750.4,83.7,750.3,85,747.9,84.6z
					 M422.6,75.4c-0.3-0.1-0.6-0.2-0.7-0.5c0.6-1.3,0.6-3,1.2-4.3C424.4,71.5,423.4,74.3,422.6,75.4z M345.5,73.4
					c-0.6-0.2-1.3-0.5-1.1-1.2C345.8,72,346.1,73.1,345.5,73.4z M413.5,74.7c-0.5-0.1-0.6-0.4-1.1-0.5c0-0.4,0.5-0.5,0.4-0.9
					C414,73.2,414.1,74.3,413.5,74.7z M459.6,74.4c-1.3,0.2-0.6-1.1-0.3-1.2C460.5,73.4,459.4,73.6,459.6,74.4z M415.4,73.3
					c-1.3-0.2-1.1-1.3-0.7-1.9C415.8,71.4,415.3,72.5,415.4,73.3z M494.7,74.5c-0.4,0-0.6-0.1-0.7-0.3c-0.5-0.7-0.4-2.1-0.3-3.4
					c0.1-1.1,0-2.7,1.2-2.4c1.2-0.2,0.7,1,0.7,1.5c0.1,1.3-0.3,2.7-0.5,3.8C495.2,74.2,494.7,74.2,494.7,74.5z M320,69.9
					c-1.7,0.1-1.3-1.6,0.4-1.2C320.5,69.3,320.3,69.7,320,69.9z M472.1,70.8c-0.6-0.5-1.3-0.9-1.8-1.5c1-1-0.5-3.8,1.9-3.8
					C473,67,473.3,69.5,472.1,70.8z M424.2,69.6c-1,0-0.8-1.2-0.3-1.4C424.7,68.2,424,69.2,424.2,69.6z M414.4,67.7
					c1.1,0.2,2.1,0.4,2.2,1.3C415.3,69.6,414.2,68.7,414.4,67.7z M445.1,69.2c-0.8-0.3-0.2-1.6,0.8-1.4
					C446.1,68.6,445.4,68.8,445.1,69.2z M837.4,77.5C837.6,75.7,840.2,77.5,837.4,77.5L837.4,77.5z M414.8,67
					c-1.2,0.2-0.5-0.8-0.7-1.2C415.3,65.6,415.4,66.7,414.8,67z M424.3,64.8c-0.3-0.1-0.6-0.2-0.7-0.5c0.5-2.6-0.4-6.2,0.2-8.6
					c0.2-0.7,0.1-1.9,1.5-1.9c-0.1,2.5,0.3,3.4,0.2,6c0.7-0.1,1.6,0,1.5-0.7c0.8,1,0.1,3-1.9,2.8C424.8,63.2,426,63.8,424.3,64.8z"
					/>
				<path class="st2" d="M802.6,91c0.3-1.6,2.5-3.7,6.3-3.7c1,0.1,0.3-0.9,1.5-0.7c0.6,0.8-0.9,0.8-1.5,1.2c-0.7,0.4-1.1,1-2.6,0.9
					c-0.6,0.3-0.4,1.2-1.1,1.4c-0.8,0-1.2-0.2-1.1-0.7C803.3,89.6,804.2,91.2,802.6,91z"/>
			</g>
		</g>
	</g>
</g>
</svg>
