<!-- Generator: Adobe Illustrator 21.1.0, SVG Export Plug-In  -->
<svg version="1.1"
	 xmlns="http://www.w3.org/2000/svg" xmlns:xlink="http://www.w3.org/1999/xlink" xmlns:a="http://ns.adobe.com/AdobeSVGViewerExtensions/3.0/"
	 x="0px" y="0px" width="149.8px" height="147.2px" viewBox="0 0 149.8 147.2" style="enable-background:new 0 0 149.8 147.2;"
	 xml:space="preserve">
<style type="text/css">
	.st0{fill:#B2D235;}
</style>
<defs>
</defs>
<path class="st0" d="M76.3,34.2c-2.3,0-4.6,0-6.8,0c0,0,0-0.1,0-0.1c2,0,3.9-0.1,5.9,0c3,0,6,0.6,8.9,1.4c5.8,1.6,11,4.5,15.5,8.5
	c5.8,5.1,9.9,11.4,12.1,18.9c1.4,4.7,1.9,9.4,1.6,14.3c-0.4,6.7-2.5,12.9-5.6,18.8c-4.2,8-7.9,16.3-10.6,25c-1.1,3.5-2,7-2.4,10.6
	c-0.2,1.3-0.2,2.6-0.3,3.9c-0.2,2.1-0.4,4.2-0.8,6.3c-0.3,1.4-1,2.6-2,3.7c-1.2,1.3-2.8,1.9-4.5,1.9c-9.2,0-18.3,0-27.5,0
	c-3,0-4.8-1.7-6-4.3c-0.7-1.5-1-3.2-1-4.8c-0.2-7.9-2.1-15.5-4.9-22.9c-2.5-6.8-5.5-13.4-8.9-19.9c-1.9-3.7-3.6-7.4-4.5-11.5
	c-0.6-2.5-1-5-1-7.6c0-1.9,0-3.9,0.1-5.8c0.3-3.9,1.2-7.6,2.8-11.2c1.1-2.4,2.4-4.8,3.8-7.1c0.9-1.5,2-2.9,3.2-4.2
	c5.7-6.1,12.3-10.5,20.5-12.5c3.7-0.9,7.5-1.3,11.4-1.2C75.7,34.2,76,34.2,76.3,34.2C76.3,34.2,76.3,34.2,76.3,34.2z"/>
<g>
	<path class="st0" d="M73.6,28.7c-1.5-1.2-2.5-2.4-3.5-3.6c0.1-1.2,0-2.4,0-3.6v-7.2V7.2V3.6c1.1-1.2,2.1-2.4,3.5-3.6
		c1.4,1.2,2.4,2.4,3.5,3.6v3.6v7.2v7.2c0,1.2,0,2.4,0,3.6C76.1,26.3,75.1,27.5,73.6,28.7z"/>
</g>
<g>
	<path class="st0" d="M110.9,43.9c-0.2-1.9-0.1-3.5,0-5c0.9-0.8,1.7-1.7,2.6-2.5l5.1-5.1l5.1-5.1l2.5-2.5c1.6-0.1,3.2-0.2,5-0.1
		c0.1,1.8,0,3.4-0.1,5l-2.5,2.5l-5.1,5.1l-5.1,5.1c-0.8,0.9-1.7,1.7-2.5,2.6C114.4,44,112.8,44.1,110.9,43.9z"/>
</g>
<g>
	<path class="st0" d="M36.3,43.9c-1.9,0.2-3.5,0.1-5,0c-0.8-0.9-1.7-1.7-2.5-2.6l-5.1-5.1l-5.1-5.1l-2.5-2.5c-0.1-1.6-0.2-3.2-0.1-5
		c1.8-0.1,3.4,0,5,0.1l2.5,2.5l5.1,5.1l5.1,5.1c0.9,0.8,1.7,1.7,2.6,2.5C36.4,40.5,36.5,42.1,36.3,43.9z"/>
</g>
<g>
	<path class="st0" d="M28.7,73.7c-1.2,1.5-2.4,2.5-3.6,3.5c-1.2-0.1-2.4,0-3.6,0h-7.2H7.2H3.6c-1.2-1.1-2.4-2.1-3.6-3.5
		c1.2-1.4,2.4-2.4,3.6-3.5h3.6h7.2h7.2c1.2,0,2.4,0,3.6,0C26.3,71.2,27.5,72.3,28.7,73.7z"/>
</g>
<g>
	<path class="st0" d="M149.8,73.7c-1.2,1.5-2.4,2.5-3.6,3.5c-1.2-0.1-2.4,0-3.6,0h-7.2h-7.2h-3.6c-1.2-1.1-2.4-2.1-3.6-3.5
		c1.2-1.4,2.4-2.4,3.6-3.5h3.6h7.2h7.2c1.2,0,2.4,0,3.6,0C147.4,71.2,148.6,72.3,149.8,73.7z"/>
</g>
</svg>
