<!-- Generator: Adobe Illustrator 21.1.0, SVG Export Plug-In  -->
<svg version="1.1"
	 xmlns="http://www.w3.org/2000/svg" xmlns:xlink="http://www.w3.org/1999/xlink" xmlns:a="http://ns.adobe.com/AdobeSVGViewerExtensions/3.0/"
	 x="0px" y="0px" width="79.9px" height="142.4px" viewBox="0 0 79.9 142.4" style="enable-background:new 0 0 79.9 142.4;"
	 xml:space="preserve">
<style type="text/css">
	.st0{fill:#FFFFFF;}
</style>
<defs>
</defs>
<g>
	<path class="st0" d="M42.6,0.1c-2.3,0-4.6,0-6.8,0c0,0,0-0.1,0-0.1c2,0,3.9-0.1,5.9,0c3,0,6,0.6,8.9,1.4c5.8,1.6,11,4.5,15.5,8.5
		C72,15,76,21.3,78.3,28.7c1.4,4.7,1.9,9.4,1.6,14.3c-0.4,6.7-2.5,12.9-5.6,18.8c-4.2,8-7.9,16.3-10.6,25c-1.1,3.5-2,7-2.4,10.6
		c-0.2,1.3-0.2,2.6-0.3,3.9c-0.2,2.1-0.4,4.2-0.8,6.3c-0.3,1.4-1,2.6-2,3.7c-1.2,1.3-2.8,1.9-4.5,1.9c-9.2,0-18.3,0-27.5,0
		c-3,0-4.8-1.7-6-4.3c-0.7-1.5-1-3.2-1-4.8c-0.2-7.9-2.1-15.5-4.9-22.9c-2.5-6.8-5.5-13.4-8.9-19.9C3.5,57.5,1.9,53.8,1,49.7
		c-0.6-2.5-1-5-1-7.6c0-1.9,0-3.9,0.1-5.8c0.3-3.9,1.2-7.6,2.8-11.2c1.1-2.4,2.4-4.8,3.8-7.1c0.9-1.5,2-2.9,3.2-4.2
		C15.5,7.9,22.2,3.4,30.4,1.4c3.7-0.9,7.5-1.3,11.4-1.2C42,0.2,42.3,0.2,42.6,0.1C42.6,0.2,42.6,0.2,42.6,0.1z M48.9,66
		c1.6-1.9,3.2-3.8,4.7-5.8c1.4-1.8,2.3-3.7,2.8-5.9c0.1-0.3,0.1-0.6,0.2-0.8c0.2-1.5-0.3-2.4-1.7-3.1c-1.4-0.7-2.7-0.4-4,0.8
		c-1.1,1-1.9,2.2-2.6,3.4c-1.8,3.2-2.9,6.7-3.9,10.2c-0.5,1.8-1,3.7-1.4,5.6c0,0.1-0.3,0.4,0.1,0.5c0,0,0,0.1-0.1,0.1c0,0,0,0,0,0.1
		c0.1-0.1,0.3-0.1,0.4-0.2c1.9-1.2,3.7-2.6,5.2-4.3C48.7,66.3,48.8,66.2,48.9,66z M68.3,65.1c0.5-1,1-2.1,1.5-3.1
		c0.2-0.5,0.5-1.1,0.7-1.6c0.1-0.2,0.2-0.3,0.3-0.5c0.6-1.2,1.2-2.5,1.7-3.7c0.3-0.7,0.6-1.4,0.9-2.2c1.4-3.9,2.3-7.8,2.4-12
		c0.1-3-0.1-6-0.7-8.9c-1.7-8.4-5.9-15.3-12.4-20.8c-5.8-4.9-12.5-7.6-20-8.2C39.4,3.8,36,4,32.6,4.8c-9.7,2.1-17.3,7.4-22.7,15.7
		c-5.1,7.7-6.8,16.1-5.6,25.2c0.6,4.3,1.9,8.3,3.9,12.1c4.4,8.5,8.4,17.1,11.4,26.2c1.3,3.9,2.4,7.8,2.9,11.8
		c0.4,2.9,0.5,5.7,0.8,8.6c0.1,1.2,0.3,2.3,0.9,3.4c0.5,0.9,1.2,1.3,2.3,1.3c3.7,0,7.4,0,11.1,0c0.2,0,0.4,0,0.5,0
		c0-2.2,0-4.2,0-6.3c0-8.3-0.1-16.7-0.7-25c-0.1-0.9,0-0.9-0.9-1.2c-0.2-0.1-0.5-0.1-0.7-0.3c-1.7-1-3.5-1.9-5.2-3
		c-3.5-2.2-6.1-5.2-7.5-9.1c-1.5-4.2-1.7-8.4,1-12.4c0.2-0.1,0.4-0.2,0.5-0.4c0.9-1,2.1-1.7,3.5-1.9c0.3,0,0.6-0.1,0.9-0.1
		c0,0,0,0,0-0.1c-0.4,0-0.8,0-1.2,0c0.6,0,1.1-0.1,1.7-0.1c2.1,0.3,3.7,1.6,5,3.2c2.4,3,3.8,6.4,4.8,10c0.3,1.2,0.6,2.5,0.8,3.7
		c1.2-3.8,2-7.8,4.1-11.2c0.9-1.6,1.8-3.2,2.7-4.8c0.2-0.1,0.4-0.2,0.5-0.4c1.2-1.5,2.6-2.7,4.5-3.2c0.7-0.2,1.4-0.3,2.1-0.4
		c0,0,0,0,0,0c-0.6,0-1.2,0.1-1.8,0.1c0.4-0.1,0.9-0.2,1.3-0.2c1.8,0,3.4,0.6,4.8,1.6c1.6,1.2,2.4,2.8,2.5,4.8
		c0.1,1.7-0.3,3.4-1,4.9c-1.2,2.9-3,5.5-4.9,8c-3.5,4.4-7.6,8.2-12.6,10.8c-0.2,0.1-0.3,0.3-0.4,0.4c-0.1,0.8-0.3,1.5-0.2,2.3
		c0.1,4.3,0.4,8.6,0.5,13c0.1,5.6,0.1,11.1,0.1,16.7c0,0.2,0,0.4,0,0.6c4.1,0,8.2,0,12.2,0c-0.3,0-0.6,0.1-0.9,0.1
		c-3.5,0-7,0-10.5,0c-0.2,0-0.4,0-0.6,0c0,0,0,0.1,0,0.1c0.1,0,0.2,0,0.3,0c3.7,0,7.4,0,11.1,0c0.2,0,0.4,0,0.6,0
		c0.6-0.2,1.2-0.4,1.4-1.2c0.2-0.5,0.5-1,0.6-1.5c0.2-1.7,0.5-3.4,0.6-5c0.1-3.5,0.6-7,1.4-10.4c1.4-6.1,3.6-11.9,6-17.7
		c0.4-1.1,1-2.1,1.5-3.2c0.2-0.3,0.2-0.7,0.3-1.1c0.3-0.6,0.6-1.2,1-1.8C67.5,66.6,67.9,65.8,68.3,65.1z M36.7,72.5
		c0-0.3,0-0.3,0-0.4c-0.4-2.3-0.7-4.6-1.1-6.8c-0.7-3.4-1.9-6.5-3.9-9.3c-0.6-0.9-1.4-1.6-2.2-2.3c-0.7-0.6-1.5-0.5-2,0.1
		c-0.5,0.5-0.9,1.1-1.1,1.8c-1,2.9-0.5,5.6,0.7,8.3c1.4,2.9,3.6,5.1,6.3,6.7C34.5,71.2,35.6,71.8,36.7,72.5z M38,109.3
		C38,109.3,38,109.3,38,109.3c-4-0.1-8-0.1-12.1-0.1c0,0,0,0,0,0.1C30,109.3,34,109.3,38,109.3z"/>
	<path class="st0" d="M54.6,121.4c1.7,0.6,2.7,1.7,2.7,3.4c0,1.8-1,2.9-2.7,3.6c1.6,0.5,2.5,1.5,2.7,3.1c0.2,2-1.4,3.9-3.4,3.9
		c-3.1,0-6.2,0-9.3,0c-6.1,0-12.2,0-18.3,0c-1.9,0-3.2-1.1-3.6-3c-0.3-1.7,0.5-2.6,2.1-3.6c0.2-0.1,0.4-0.2,0.7-0.3
		c-0.3-0.2-0.5-0.3-0.7-0.4c-1.8-0.8-2.7-2.7-2-4.4c0.3-0.9,1-1.5,1.9-1.9c0.2-0.1,0.4-0.2,0.7-0.4c-1.6-0.5-2.5-1.5-2.7-3
		c-0.1-0.8,0-1.7,0.5-2.2c0.8-0.8,1.8-1.6,3-1.6c0.3,0,0.6,0,0.9,0c8.7,0,17.4,0,26.1,0c0.3,0,0.6,0,1,0c0,0,0-0.1,0-0.1
		c-9.5,0-19,0-28.5,0c0,0,0-0.1,0-0.1c0.3,0,0.5,0,0.8,0c9.1,0,18.2,0,27.3,0c1.6,0,3.2,1.1,3.6,2.8c0.4,1.7-0.6,3.4-2.2,4
		C54.9,121.3,54.8,121.3,54.6,121.4z M45.7,130.6c-0.4,0.1-0.8,0.2-1.1,0.2c-4.7,0-9.4,0-14.1,0c-0.2,0-0.4,0-0.6,0c0,0,0,0.1,0,0.1
		c0.3,0,0.5,0,0.8,0c4.6,0,9.3,0,13.9,0c0.2,0,0.5,0,0.7,0c0.6-0.1,1.2-0.3,1.5-0.9c0,0-0.1-0.1-0.1-0.1c0.1-0.4,0.3-0.9,0.3-1.3
		c-0.1-1.1-0.8-1.7-2.1-1.7c-4.9,0-9.7,0-14.6,0c-0.2,0-0.3,0-0.5,0c-0.9,0.1-1.6,0.8-1.7,1.7c-0.1,1,0.5,1.8,1.4,2
		c0.3,0.1,0.6,0.1,1,0.1c4.3,0,8.6,0,13,0C44.2,130.8,44.9,130.7,45.7,130.6z M29.7,123c0,0,0,0.1,0,0.1c0.2,0,0.4,0,0.6,0
		c6.6,0,13.2,0,19.7,0c1.4,0,1.8-0.3,2.1-1.6c0.2-0.8-0.1-1.8-0.9-2.2c-0.4-0.2-0.8-0.2-1.2-0.2c-6.7,0-13.4,0-20.1,0
		c-0.3,0-0.6,0-0.8,0.1c-0.7,0.2-1.1,0.6-1.3,1.3c-0.3,1.2,0.6,2.4,1.9,2.4c6.8,0,13.7,0,20.5,0c0.2,0,0.4,0,0.5,0c0,0,0,0.1,0,0.1
		C43.7,123,36.7,123,29.7,123z"/>
	<path class="st0" d="M28.9,136.8c7.2,0,14.3,0,21.4,0c0,0,0,0,0,0c-6.9,0-13.7,0-20.6,0c0,0,0-0.1,0-0.1c7.1,0,14.2,0,21.5,0
		c-2.4,3.2-5.5,5.2-9.3,5.6C36.4,142.9,32.2,140.9,28.9,136.8z"/>
	<path class="st0" d="M12.6,11c-0.5,0.5-1,1-1.6,1.4c0,0,0.1,0.1,0.1,0.1C11.7,12.1,12.2,11.6,12.6,11C12.6,11,12.6,11,12.6,11z"/>
	<path class="st0" d="M54.3,109.1c0.5-0.3,1-0.7,1.5-1c-0.1,0.8-0.8,1-1.4,1.2c-0.2,0.1-0.4,0-0.6,0c-3.7,0-7.4,0-11.1,0
		c-0.1,0-0.2,0-0.3,0c0,0,0-0.1,0-0.1c0.2,0,0.4,0,0.6,0c3.5,0,7,0,10.5,0C53.7,109.2,54,109.1,54.3,109.1z"/>
	<path class="st0" d="M43.1,70.8c0.7-0.5,1.4-1,2.1-1.5c0.9-0.8,1.8-1.6,2.8-2.5c0.3-0.3,0.6-0.6,0.9-0.8c-0.1,0.2-0.1,0.3-0.2,0.5
		c-1.5,1.7-3.2,3.1-5.2,4.3c-0.1,0.1-0.3,0.1-0.4,0.2C43.1,70.9,43.1,70.9,43.1,70.8C43.1,70.9,43.1,70.8,43.1,70.8z"/>
	<path class="st0" d="M38,109.3c-4,0-8,0-12.1,0c0,0,0,0,0-0.1C30,109.3,34,109.3,38,109.3C38,109.3,38,109.3,38,109.3z"/>
	<path class="st0" d="M45.7,130.6c0.3-0.2,0.6-0.5,0.9-0.7c0,0,0.1,0.1,0.1,0.1c-0.4,0.5-0.9,0.8-1.5,0.9c-0.2,0-0.5,0-0.7,0
		c-4.6,0-9.3,0-13.9,0c-0.3,0-0.5,0-0.8,0c0,0,0-0.1,0-0.1c0.2,0,0.4,0,0.6,0c4.7,0,9.4,0,14.1,0C44.9,130.9,45.3,130.7,45.7,130.6z
		"/>
</g>
</svg>
